<svg xmlns="http://www.w3.org/2000/svg"  viewBox="0 0 100 100" width="100px" height="100px"><path fill="#31c4f3" d="M76,21C63.297,8.297,40.688,10.312,25.5,25.5C12.671,38.329,9.241,56.453,16.14,69.429 c2.147,4.038,7.618,4.813,10.852,1.579l7.137-7.137c1.094-1.351,2.854-2.142,4.802-1.785c1.995,0.365,3.616,1.986,3.983,3.981 c0.358,1.948-0.433,3.709-1.785,4.804c-5.291,5.291-0.681,14.188,6.71,13.02c5.963-0.943,11.974-3.35,17.438-7.171L65.5,84.5 c0,1.657,1.343,3,3,3s3-1.343,3-3l0.383-13.399C86.714,55.918,88.593,33.593,76,21z M51,59c-2.761,0-5-2.239-5-5s2.239-5,5-5 s5,2.239,5,5S53.761,59,51,59z"/><path fill="#1f212b" d="M68.5,88.5c-2.206,0-4-1.794-4-4l-0.17-5.943c-5.072,3.252-10.684,5.428-16.334,6.321 c-3.822,0.607-7.429-1.225-9.179-4.662c-1.731-3.399-1.101-7.345,1.606-10.052c0.024-0.024,0.051-0.048,0.078-0.07 c1.165-0.943,1.7-2.381,1.431-3.847c-0.291-1.581-1.598-2.888-3.18-3.178c-1.466-0.27-2.901,0.267-3.844,1.431 c-0.022,0.027-0.045,0.054-0.07,0.078L27.7,71.715c-1.78,1.778-4.23,2.587-6.724,2.214c-2.468-0.369-4.552-1.838-5.718-4.03 c-7.27-13.674-3.349-32.222,9.536-45.105c7.511-7.511,17.029-12.127,26.8-12.998c9.838-0.872,18.757,2.142,25.114,8.498l0,0 c12.81,12.81,11.066,35.715-3.836,51.225L72.5,84.528C72.5,86.706,70.706,88.5,68.5,88.5z M65.278,75.719 c0.153,0,0.307,0.035,0.449,0.106c0.329,0.165,0.54,0.497,0.55,0.865l0.222,7.781c0,1.131,0.897,2.028,2,2.028s2-0.897,2-2 l0.383-13.428c0.007-0.251,0.108-0.49,0.284-0.671C85.56,55.669,87.41,33.824,75.293,21.707l0,0 c-5.931-5.931-14.29-8.737-23.522-7.92c-9.305,0.829-18.384,5.24-25.564,12.42c-12.268,12.268-16.045,29.849-9.184,42.752 c0.865,1.627,2.414,2.718,4.249,2.992c1.858,0.274,3.687-0.323,5.014-1.65l7.101-7.102c1.412-1.713,3.546-2.501,5.725-2.097 c2.418,0.442,4.341,2.364,4.786,4.783c0.4,2.179-0.383,4.315-2.095,5.727c-2.492,2.522-2.258,5.626-1.204,7.696 c1.35,2.65,4.132,4.057,7.084,3.595c5.924-0.938,11.81-3.359,17.021-7.004C64.876,75.779,65.077,75.719,65.278,75.719z M51,60 c-3.309,0-6-2.691-6-6s2.691-6,6-6s6,2.691,6,6S54.309,60,51,60z M51,50c-2.206,0-4,1.794-4,4s1.794,4,4,4s4-1.794,4-4 S53.206,50,51,50z"/><circle cx="49.5" cy="27.5" r="6" fill="#f9b621"/><path fill="#1f212b" d="M49.5,34c-3.584,0-6.5-2.916-6.5-6.5s2.916-6.5,6.5-6.5s6.5,2.916,6.5,6.5S53.084,34,49.5,34z M49.5,22c-3.033,0-5.5,2.468-5.5,5.5s2.467,5.5,5.5,5.5s5.5-2.468,5.5-5.5S52.533,22,49.5,22z"/><circle cx="32.5" cy="35.5" r="6" fill="#70b570"/><path fill="#1f212b" d="M32.5,42c-3.584,0-6.5-2.916-6.5-6.5s2.916-6.5,6.5-6.5s6.5,2.916,6.5,6.5S36.084,42,32.5,42z M32.5,30c-3.033,0-5.5,2.468-5.5,5.5s2.467,5.5,5.5,5.5s5.5-2.468,5.5-5.5S35.533,30,32.5,30z"/><circle cx="24.5" cy="51.5" r="6" fill="#e85654"/><path fill="#1f212b" d="M24.5,58c-3.584,0-6.5-2.916-6.5-6.5s2.916-6.5,6.5-6.5s6.5,2.916,6.5,6.5S28.084,58,24.5,58z M24.5,46c-3.033,0-5.5,2.468-5.5,5.5s2.467,5.5,5.5,5.5s5.5-2.468,5.5-5.5S27.533,46,24.5,46z"/><path fill="#fdd4b2" d="M76.5,36.5c0-1.104-0.895-2-2-2h-12c-1.105,0-2,0.896-2,2c0,0.356,0.101,0.686,0.264,0.976 L60.75,37.5l3.75,8l4,1.5l4-1.5l3.75-8l-0.014-0.024C76.399,37.186,76.5,36.856,76.5,36.5z"/><path fill="#1f212b" d="M68.5,47.5c-0.06,0-0.119-0.011-0.176-0.032l-4-1.5c-0.122-0.046-0.222-0.138-0.277-0.256l-3.75-8 c-0.019-0.04-0.032-0.082-0.04-0.125C60.086,37.239,60,36.875,60,36.5c0-1.379,1.122-2.5,2.5-2.5h12c1.378,0,2.5,1.121,2.5,2.5 c0,0.378-0.088,0.746-0.262,1.096c-0.006,0.041-0.018,0.08-0.035,0.116l-3.75,8c-0.055,0.118-0.155,0.21-0.277,0.256l-4,1.5 C68.619,47.489,68.56,47.5,68.5,47.5z M64.866,45.104l3.634,1.362l3.634-1.362l3.613-7.708c0.007-0.059,0.025-0.115,0.053-0.166 c0.132-0.234,0.2-0.48,0.2-0.729c0-0.827-0.673-1.5-1.5-1.5h-12c-0.827,0-1.5,0.673-1.5,1.5c0,0.249,0.067,0.495,0.2,0.729 c0.032,0.057,0.052,0.118,0.06,0.18L64.866,45.104z"/><g><path fill="#e18e4a" d="M68.5,48l-4,1.5L66,83.25c-0.5,2.5,0.843,4.25,2.5,4.25s3.25-1.5,2.5-4l1.5-34L68.5,48z"/><path fill="#1f212b" d="M68.5,88c-0.869,0-1.667-0.389-2.246-1.096c-0.753-0.918-1.027-2.261-0.756-3.691L64,49.522 c-0.01-0.217,0.121-0.415,0.324-0.49l4-1.5c0.113-0.043,0.238-0.043,0.352,0l4,1.5c0.203,0.075,0.333,0.273,0.324,0.49 l-1.497,33.917c0.356,1.259,0.198,2.427-0.449,3.296C70.465,87.527,69.51,88,68.5,88z M65.016,49.841L66.5,83.228 c0.002,0.041-0.001,0.081-0.009,0.12c-0.231,1.159-0.036,2.224,0.537,2.923c0.861,1.052,2.498,0.845,3.224-0.132 c0.331-0.444,0.646-1.238,0.27-2.495c-0.016-0.054-0.023-0.109-0.021-0.166l1.484-33.637L68.5,48.534L65.016,49.841z"/></g><path fill="#1f212b" d="M75.189,61c-0.086,0-0.174-0.022-0.254-0.069c-0.237-0.142-0.316-0.448-0.175-0.686	c0.758-1.28,1.447-2.609,2.048-3.949c0.112-0.252,0.409-0.366,0.661-0.252c0.252,0.112,0.365,0.408,0.251,0.66	c-0.616,1.375-1.322,2.738-2.1,4.051C75.526,60.912,75.36,61,75.189,61z"/><path fill="#1f212b" d="M78.281,54.5c-0.057,0-0.115-0.01-0.172-0.03c-0.259-0.095-0.393-0.383-0.298-0.642	c1.012-2.762,1.675-5.582,1.973-8.381c0.029-0.275,0.272-0.473,0.55-0.444c0.275,0.029,0.474,0.275,0.444,0.55	c-0.306,2.881-0.988,5.78-2.028,8.619C78.677,54.375,78.485,54.5,78.281,54.5z"/><path fill="#1f212b" d="M80.462,43c-0.002,0-0.004,0-0.006,0c-0.276-0.004-0.497-0.23-0.494-0.507	c0.094-7.255-2.402-13.799-7.028-18.427C68.377,19.51,61.968,17,54.888,17c-0.276,0-0.5-0.224-0.5-0.5s0.224-0.5,0.5-0.5	c7.348,0,14.008,2.613,18.753,7.359c4.819,4.819,7.419,11.62,7.321,19.147C80.958,42.78,80.735,43,80.462,43z"/><g><rect width="8" height="4" x="64.5" y="45.5" fill="#d1dae7"/><path fill="#1f212b" d="M72.5,50h-8c-0.276,0-0.5-0.224-0.5-0.5v-4c0-0.276,0.224-0.5,0.5-0.5h8c0.276,0,0.5,0.224,0.5,0.5 v4C73,49.776,72.776,50,72.5,50z M65,49h7v-3h-7V49z"/></g></svg>