<svg xmlns="http://www.w3.org/2000/svg" xmlns:xlink="http://www.w3.org/1999/xlink" viewBox="0,0,256,256" width="100px" height="100px" fill-rule="nonzero"><g fill="none" fill-rule="nonzero" stroke="none" stroke-width="1" stroke-linecap="butt" stroke-linejoin="miter" stroke-miterlimit="10" stroke-dasharray="" stroke-dashoffset="0" font-family="none" font-weight="none" font-size="none" text-anchor="none" style="mix-blend-mode: normal"><g transform="scale(2.56,2.56)"><path d="M38.32,33.93l42.14,30.83c5,3.68 6.07,10.71 2.39,15.71c-3.68,5 -10.71,6.07 -15.71,2.39c-0.92,-0.68 -1.74,-1.52 -2.39,-2.39l-30.83,-42.14c-1.03,-1.4 -0.73,-3.36 0.67,-4.39c1.13,-0.83 2.65,-0.79 3.72,0z" fill="#ff5d8f"></path><circle cx="38.98" cy="38.98" r="24.02" fill="#ffc4d6"></circle><path d="M38.98,64.99c-6.66,0 -13.33,-2.54 -18.4,-7.61c-10.15,-10.15 -10.15,-26.65 0,-36.8c10.14,-10.15 26.65,-10.15 36.8,0c10.15,10.15 10.15,26.65 0,36.8c-5.07,5.07 -11.74,7.61 -18.4,7.61zM38.98,16.97c-5.64,0 -11.28,2.15 -15.57,6.44c-8.59,8.59 -8.59,22.56 0,31.14c8.59,8.58 22.56,8.59 31.14,0c8.59,-8.59 8.59,-22.56 0,-31.14c-4.29,-4.29 -9.93,-6.44 -15.57,-6.44z" fill="#ff5d8f"></path><circle cx="29.74" cy="36.11" r="5.78" fill="#ffffff"></circle><circle cx="29.74" cy="36.11" r="2.31" fill="#390f0f"></circle><circle cx="48.22" cy="36.11" r="5.78" fill="#ffffff"></circle><circle cx="48.22" cy="36.11" r="2.31" fill="#390f0f"></circle><path d="M34.99,43.04c-0.36,0 -0.63,0.33 -0.57,0.68c0.34,2.21 2.25,3.91 4.56,3.91c2.31,0 4.22,-1.69 4.56,-3.91c0.06,-0.36 -0.21,-0.68 -0.57,-0.68z" fill="#390f0f"></path><path d="M54,61.23c-0.16,0 -0.32,-0.08 -0.41,-0.22c-0.16,-0.23 -0.1,-0.54 0.13,-0.7c1.28,-0.88 2.48,-1.88 3.59,-2.99c1.92,-1.92 3.52,-4.12 4.73,-6.53c0.12,-0.25 0.43,-0.34 0.67,-0.22c0.25,0.12 0.35,0.42 0.22,0.67c-1.26,2.5 -2.92,4.79 -4.92,6.79c-1.15,1.15 -2.4,2.19 -3.73,3.11c-0.09,0.06 -0.19,0.09 -0.28,0.09z" fill="#390f0f"></path><path d="M51,63.01c-0.18,0 -0.36,-0.1 -0.45,-0.27c-0.12,-0.25 -0.03,-0.55 0.22,-0.67c1.02,-0.51 2.01,-1.1 2.94,-1.74c0.23,-0.16 0.54,-0.1 0.7,0.13c0.16,0.23 0.1,0.54 -0.13,0.7c-0.98,0.67 -2,1.28 -3.06,1.81c-0.07,0.04 -0.15,0.05 -0.22,0.05z" fill="#390f0f"></path></g></g></svg>