<?xml version="1.0" encoding="UTF-8"?>
<svg version="1.1" xmlns="http://www.w3.org/2000/svg" width="500" height="500">
<path d="M0 0 C1.22267578 -0.00386719 2.44535156 -0.00773437 3.70507812 -0.01171875 C12.29112434 -0.00239116 18.93518182 0.2339517 26.6875 4.125 C29.30892574 4.71176473 31.8547486 5.20987964 34.5 5.625 C40.45350165 6.64775837 46.03460256 7.94888462 51.6875 10.125 C52.656875 10.434375 53.62625 10.74375 54.625 11.0625 C56.6875 12.125 56.6875 12.125 57.5625 14.1875 C57.93375 14.826875 58.305 15.46625 58.6875 16.125 C61.38348077 16.70396442 61.38348077 16.70396442 63.43359375 16.85546875 C70.93161092 17.75211205 78.85877738 19.90390442 85.6875 23.125 C86.05901464 24.44820284 86.3944374 25.78224045 86.6875 27.125 C88.93493756 28.27520525 88.93493756 28.27520525 91.6875 29.125 C93.69501815 30.10982022 95.69684459 31.10652514 97.6875 32.125 C97.6875 32.785 97.6875 33.445 97.6875 34.125 C98.574375 34.393125 99.46125 34.66125 100.375 34.9375 C103.4784666 36.0500635 105.99860685 37.22695778 108.6875 39.125 C108.6875 39.785 108.6875 40.445 108.6875 41.125 C109.533125 41.125 110.37875 41.125 111.25 41.125 C115.70921233 42.4222254 117.16944682 44.65887095 120.015625 48.19140625 C121.97213202 50.4541889 124.07397291 51.70622815 126.6875 53.125 C127.3475 54.115 128.0075 55.105 128.6875 56.125 C129.698125 56.455 130.70875 56.785 131.75 57.125 C136.79880919 59.0579123 139.43439141 63.4294569 142.57421875 67.62890625 C144.64109367 70.07018734 145.89823211 70.78752318 148.6875 72.125 C150.14453125 73.97265625 150.14453125 73.97265625 151.5 76.1875 C155.55601905 82.55248707 160.14157285 88.39898161 165.125 94.0625 C167.6875 97.125 167.6875 97.125 167.6875 99.125 C168.5228125 99.4034375 168.5228125 99.4034375 169.375 99.6875 C179.99709984 106.29042693 183.03995681 123.77351092 185.85668945 135.13452148 C187.34826458 141.08937153 189.24326757 146.67636778 191.57421875 152.36328125 C194.8468456 163.42131512 195.16326407 175.20454036 195.74780273 186.65966797 C195.87629165 189.15003472 196.01865975 191.63936111 196.16210938 194.12890625 C196.24821899 195.73172682 196.33353478 197.33459028 196.41796875 198.9375 C196.48192085 200.03916504 196.48192085 200.03916504 196.54716492 201.16308594 C196.74765118 205.30320967 196.53063017 209.06586789 195.6875 213.125 C194.3675 212.795 193.0475 212.465 191.6875 212.125 C191.3575 213.115 191.0275 214.105 190.6875 215.125 C190.0275 215.125 189.3675 215.125 188.6875 215.125 C189.0175 217.105 189.3475 219.085 189.6875 221.125 C189.0275 220.795 188.3675 220.465 187.6875 220.125 C187.0275 221.115 186.3675 222.105 185.6875 223.125 C185.0275 221.805 184.3675 220.485 183.6875 219.125 C183.0275 220.445 182.3675 221.765 181.6875 223.125 C180.2025 221.64 180.2025 221.64 178.6875 220.125 C177.2025 222.105 177.2025 222.105 175.6875 224.125 C175.3575 223.795 175.0275 223.465 174.6875 223.125 C174.0275 224.445 173.3675 225.765 172.6875 227.125 C172.0275 225.805 171.3675 224.485 170.6875 223.125 C168.7075 224.115 168.7075 224.115 166.6875 225.125 C159.02543941 208.51070367 154.28499401 191.30833132 151.66894531 173.19311523 C146.11257434 135.10913964 125.17801009 100.48542157 94.6875 77.125 C93.43066406 76.06925781 93.43066406 76.06925781 92.1484375 74.9921875 C91.35695313 74.33476562 90.56546875 73.67734375 89.75 73 C89.06035156 72.41992188 88.37070312 71.83984375 87.66015625 71.2421875 C87.00917969 70.87351562 86.35820312 70.50484375 85.6875 70.125 C85.05779297 70.29974854 84.42808594 70.47449707 83.77929688 70.65454102 C80.13275329 71.47467284 77.20858683 68.96744228 74.125 67.1875 C48.02061549 52.81994871 18.74053269 43.49971308 -11.3125 45.125 C-12.0048877 45.16222168 -12.69727539 45.19944336 -13.41064453 45.23779297 C-31.65744172 46.36607737 -58.96129004 51.02308734 -72.34765625 64.48046875 C-75.2304002 66.8932624 -78.51663283 68.53905003 -81.8125 70.3125 C-90.21254865 74.89115919 -97.79480218 80.22335437 -105.3125 86.125 C-106.859375 87.33349609 -106.859375 87.33349609 -108.4375 88.56640625 C-122.64679867 100.14770963 -136.30971955 113.44060085 -147.3125 128.125 C-148.21127619 129.28460151 -149.11109531 130.4433951 -150.01171875 131.6015625 C-155.86256132 139.19281488 -161.38357543 146.99725918 -166.75 154.9375 C-167.32903076 155.78425293 -167.90806152 156.63100586 -168.50463867 157.50341797 C-175.08389882 167.3632195 -179.17577146 177.99886871 -183.125 189.125 C-183.55296875 190.32165283 -183.9809375 191.51830566 -184.421875 192.7512207 C-187.92115358 202.68509629 -190.97321789 212.71018202 -193.80004883 222.85742188 C-194.10322021 223.92927734 -194.4063916 225.00113281 -194.71875 226.10546875 C-194.97978516 227.05317139 -195.24082031 228.00087402 -195.50976562 228.97729492 C-196.3125 231.125 -196.3125 231.125 -198.3125 232.125 C-199.3025 229.65 -199.3025 229.65 -200.3125 227.125 C-200.9725 227.125 -201.6325 227.125 -202.3125 227.125 C-202.9725 225.145 -203.6325 223.165 -204.3125 221.125 C-207.2379644 220.9013932 -207.2379644 220.9013932 -209.3125 222.125 C-209.6425 220.475 -209.9725 218.825 -210.3125 217.125 C-210.6425 217.125 -210.9725 217.125 -211.3125 217.125 C-211.4375 211.375 -211.4375 211.375 -210.3125 209.125 C-211.3025 209.125 -212.2925 209.125 -213.3125 209.125 C-213.60125 210.094375 -213.89 211.06375 -214.1875 212.0625 C-215.3125 215.125 -215.3125 215.125 -217.3125 216.125 C-216.9825 212.825 -216.6525 209.525 -216.3125 206.125 C-217.6325 206.455 -218.9525 206.785 -220.3125 207.125 C-220.6425 206.795 -220.9725 206.465 -221.3125 206.125 C-221.23354727 198.72462547 -219.41147229 191.58436721 -217.4375 184.5 C-217.1379541 183.42258545 -216.8384082 182.3451709 -216.52978516 181.23510742 C-213.58353734 171.17498107 -209.3621442 161.912333 -204.83203125 152.484375 C-202.23889446 147.07211585 -200.20207655 141.62473622 -198.2734375 135.94140625 C-195.13230378 126.73507531 -190.34120074 118.41380803 -185.3125 110.125 C-184.85246582 109.3628418 -184.39243164 108.60068359 -183.91845703 107.81542969 C-182.4302771 105.38022616 -180.90818059 102.96958375 -179.375 100.5625 C-178.90964844 99.80074463 -178.44429687 99.03898926 -177.96484375 98.25415039 C-174.3014021 92.62824008 -170.35662721 89.91983302 -164.3125 87.125 C-162.97787912 86.46091467 -161.6441346 85.79505338 -160.3125 85.125 C-160.395 84.238125 -160.4775 83.35125 -160.5625 82.4375 C-160.20541014 77.70605936 -158.13128134 75.71168628 -154.62890625 72.65625 C-153.41607553 71.63382066 -152.19858828 70.61689009 -150.9765625 69.60546875 C-149.11612284 68.03663771 -149.11612284 68.03663771 -147.1875 65.4375 C-145.3125 63.125 -145.3125 63.125 -143.12890625 61.9296875 C-139.2787558 59.4626008 -136.49244021 56.25556755 -133.375 52.9375 C-126.10002548 45.40386776 -118.38170855 39.48140285 -108.3125 36.125 C-108.16554688 35.52042969 -108.01859375 34.91585937 -107.8671875 34.29296875 C-107.12091538 31.37620096 -105.7160263 30.36131067 -103.4375 28.4375 C-102.73882812 27.83550781 -102.04015625 27.23351562 -101.3203125 26.61328125 C-99.3125 25.125 -99.3125 25.125 -96.3125 24.125 C-95.64120775 22.79398951 -94.97537611 21.46022188 -94.3125 20.125 C-92.21875 17.984375 -92.21875 17.984375 -89.8125 15.875 C-89.0184375 15.16859375 -88.224375 14.4621875 -87.40625 13.734375 C-85.3125 12.125 -85.3125 12.125 -83.3125 12.125 C-82.9825 12.785 -82.6525 13.445 -82.3125 14.125 C-81.6525 13.465 -80.9925 12.805 -80.3125 12.125 C-69.00917877 8.70493306 -57.02935349 7.31654442 -45.3125 6.125 C-44.9825 4.805 -44.6525 3.485 -44.3125 2.125 C-43.15234375 2.06441406 -41.9921875 2.00382812 -40.796875 1.94140625 C-39.21874503 1.85686357 -37.64062031 1.77222281 -36.0625 1.6875 C-34.92554688 1.62852539 -34.92554688 1.62852539 -33.765625 1.56835938 C-29.36485156 1.32998415 -24.98597344 1.00706194 -20.59765625 0.59765625 C-13.72862317 0.01162302 -6.89032795 -0.02214353 0 0 Z M-80.9375 17.625 C-81.39125 18.12 -81.845 18.615 -82.3125 19.125 C-81.3225 19.62 -81.3225 19.62 -80.3125 20.125 C-79.3225 19.465 -78.3325 18.805 -77.3125 18.125 C-77.3125 17.465 -77.3125 16.805 -77.3125 16.125 C-79.43614481 15.89890663 -79.43614481 15.89890663 -80.9375 17.625 Z M164.6875 100.125 C165.0175 101.115 165.3475 102.105 165.6875 103.125 C165.6875 102.135 165.6875 101.145 165.6875 100.125 C165.3575 100.125 165.0275 100.125 164.6875 100.125 Z M167.6875 104.125 C168.0175 105.115 168.3475 106.105 168.6875 107.125 C168.6875 106.135 168.6875 105.145 168.6875 104.125 C168.3575 104.125 168.0275 104.125 167.6875 104.125 Z M169.6875 108.125 C170.6775 109.115 171.6675 110.105 172.6875 111.125 C172.3575 110.135 172.0275 109.145 171.6875 108.125 C171.0275 108.125 170.3675 108.125 169.6875 108.125 Z M-206.3125 159.125 C-206.3125 159.785 -206.3125 160.445 -206.3125 161.125 C-205.6525 160.795 -204.9925 160.465 -204.3125 160.125 C-204.9725 159.795 -205.6325 159.465 -206.3125 159.125 Z M-206.3125 162.125 C-205.3125 164.125 -205.3125 164.125 -205.3125 164.125 Z M-207.3125 164.125 C-206.3125 167.125 -206.3125 167.125 -206.3125 167.125 Z M-205.3125 178.125 C-204.3125 180.125 -204.3125 180.125 -204.3125 180.125 Z M-216.3125 202.125 C-215.3125 204.125 -215.3125 204.125 -215.3125 204.125 Z M-199.3125 210.125 C-199.6425 211.775 -199.9725 213.425 -200.3125 215.125 C-199.6525 214.795 -198.9925 214.465 -198.3125 214.125 C-198.6425 212.805 -198.9725 211.485 -199.3125 210.125 Z " fill="#FD82AE" transform="translate(262.3125,124.875)"/>
<path d="M0 0 C-0.66 0.33 -1.32 0.66 -2 1 C-2 1.66 -2 2.32 -2 3 C-1.18015625 3.19335938 -0.3603125 3.38671875 0.484375 3.5859375 C1.56203125 3.84632813 2.6396875 4.10671875 3.75 4.375 C4.81734375 4.63023437 5.8846875 4.88546875 6.984375 5.1484375 C9.55852722 5.87533541 11.67600186 6.7026224 14 8 C14 8.66 14 9.32 14 10 C15.99954746 10.04254356 18.00041636 10.04080783 20 10 C20.33 9.67 20.66 9.34 21 9 C29.27930089 7.99794176 35.92388064 9.8410075 42.5 14.9375 C43.325 15.618125 44.15 16.29875 45 17 C47.34637036 18.3026401 49.71380558 19.54422302 52.109375 20.75390625 C54 22 54 22 55 25 C56.71965161 26.60036524 56.71965161 26.60036524 58.8125 28.0625 C59.49957031 28.56910156 60.18664062 29.07570312 60.89453125 29.59765625 C62.87808872 30.91880121 64.86241389 31.95505426 67 33 C70 35 70 35 70.75 37.4375 C72.56778124 41.16395155 75.23913236 41.47015554 79 43 C81.35340436 45.06640383 83.35819096 47.22909144 85.359375 49.6328125 C88.73992056 53.68583218 92.30322256 57.14001574 96.36328125 60.51953125 C98 62 98 62 99 64 C98.34 64 97.68 64 97 64 C97.86625 65.4540625 97.86625 65.4540625 98.75 66.9375 C100.65581251 70.28429271 102.27405442 73.67969112 103.7890625 77.21875 C104.75033168 79.42656824 105.74794 81.6032784 106.7734375 83.78125 C109.90710289 90.53339991 112.63732366 96.45848612 112.890625 104.01953125 C113.03349204 106.60644514 113.96243552 108.64818717 115 111 C115 112.32 115 113.64 115 115 C115.66 115 116.32 115 117 115 C118.96483783 124.89763108 119.09789117 134.3057014 118.625 144.3125 C118.56656067 145.74669849 118.50926289 147.18094396 118.453125 148.61523438 C118.31518439 152.07746203 118.16199842 155.53880446 118 159 C117.34 159 116.68 159 116 159 C115.67 159.66 115.34 160.32 115 161 C114.34 161 113.68 161 113 161 C113 162.65 113 164.3 113 166 C112.34 166.33 111.68 166.66 111 167 C111 165.02 111 163.04 111 161 C110.34 161 109.68 161 109 161 C109 163.31 109 165.62 109 168 C104.71 167.67 100.42 167.34 96 167 C95.32788078 163.63940391 94.78608995 160.49485149 94.421875 157.11328125 C93.07813312 145.35783204 91.17504516 134.20337881 87.60107422 122.91601562 C87.04902938 121.15628862 86.53993104 119.38323944 86.03515625 117.609375 C84.13194365 111.23810534 81.44867962 106.10952704 77.734375 100.6015625 C76.12194878 98.18292317 74.69646994 95.74186426 73.3125 93.1875 C69.55222157 86.37275591 66.8956922 82.63591043 60 79 C57.28985943 76.83188755 56.75116455 75.32658587 56 72 C55.34 71.34 54.68 70.68 54 70 C54 68.68 54 67.36 54 66 C53.01 65.67 52.02 65.34 51 65 C50.67 65.99 50.34 66.98 50 68 C48.0625 67.1875 48.0625 67.1875 46 66 C45.67 65.01 45.34 64.02 45 63 C43.08109972 61.46231588 43.08109972 61.46231588 40.75 60.0625 C37.32438514 57.87466673 34.17482066 55.53985653 31 53 C30.01 52.566875 30.01 52.566875 29 52.125 C27 51 27 51 24.5625 47.9375 C22.2976474 44.82306443 22.2976474 44.82306443 19.1875 44.125 C18.465625 44.08375 17.74375 44.0425 17 44 C17.33 44.66 17.66 45.32 18 46 C12.16371986 45.66682653 6.7022503 45.01692809 1.0625 43.4375 C-8.23256014 40.9908003 -16.82812686 41.7616784 -26.1875 43.4921875 C-30.86454083 44.33665321 -35.57819103 44.77871796 -40.30859375 45.2109375 C-45.09676359 45.67925765 -49.41361386 46.53625974 -54 48 C-54 48.66 -54 49.32 -54 50 C-55.68416016 50.34611328 -55.68416016 50.34611328 -57.40234375 50.69921875 C-68.27757134 52.97941057 -68.27757134 52.97941057 -78.140625 57.94921875 C-80.38035609 59.21494913 -82.48786265 59.518334 -85 60 C-85.515625 60.515625 -86.03125 61.03125 -86.5625 61.5625 C-87.036875 62.036875 -87.51125 62.51125 -88 63 C-89.32 63 -90.64 63 -92 63 C-92.226875 63.61875 -92.45375 64.2375 -92.6875 64.875 C-94 67 -94 67 -96.375 67.8125 C-100.28745291 69.58241917 -101.10594441 72.21188883 -103 76 C-103.66 76 -104.32 76 -105 76 C-105.06960937 76.59167969 -105.13921875 77.18335938 -105.2109375 77.79296875 C-106.30056944 80.84070164 -107.91462711 81.59702229 -110.625 83.3125 C-117.77733764 88.11129064 -122.71954194 93.23494951 -127.3359375 100.48046875 C-129.27496741 103.41632389 -131.37144462 106.19870722 -133.5 109 C-140.24452388 117.43667529 -140.24452388 117.43667529 -145 127 C-145.66128906 127.63808594 -145.66128906 127.63808594 -146.3359375 128.2890625 C-148.65698673 130.6754934 -150.08378566 133.45608616 -151.625 136.375 C-152.1367981 137.33684204 -152.1367981 137.33684204 -152.65893555 138.31811523 C-156.54888592 145.80149636 -159.77374451 153.56923935 -163.01953125 161.34765625 C-164.54225503 164.9824746 -166.1806977 168.50487351 -168 172 C-168.66 172 -169.32 172 -170 172 C-170 172.66 -170 173.32 -170 174 C-171.65 173.67 -173.3 173.34 -175 173 C-174.505 171.02 -174.505 171.02 -174 169 C-175.98491642 169.26676204 -175.98491642 169.26676204 -178 170 C-178.33 170.99 -178.66 171.98 -179 173 C-179.33 172.34 -179.66 171.68 -180 171 C-180.66 171 -181.32 171 -182 171 C-183.99785435 166.8794254 -184.17835515 163.54805635 -184 159 C-184.33 159.33 -184.66 159.66 -185 160 C-185.33 160 -185.66 160 -186 160 C-185.76595745 141.46808511 -185.76595745 141.46808511 -180 134 C-179.34 134.33 -178.68 134.66 -178 135 C-177.70867187 134.22398437 -177.41734375 133.44796875 -177.1171875 132.6484375 C-176.0074912 129.72414347 -174.88097452 126.8071456 -173.73974609 123.89501953 C-173.02227559 122.05706374 -172.31756764 120.2141418 -171.61328125 118.37109375 C-168.81283871 111.38149607 -165.76636298 105.81044853 -160.734375 100.18359375 C-158.87707477 97.84523603 -158.02329645 95.79158697 -157 93 C-147.12263556 73.09237074 -147.12263556 73.09237074 -141.7890625 71.2265625 C-140.90347656 71.11441406 -140.90347656 71.11441406 -140 71 C-140 71.66 -140 72.32 -140 73 C-139.52820313 71.89591797 -139.52820313 71.89591797 -139.046875 70.76953125 C-133.57191201 58.28595601 -133.57191201 58.28595601 -129 56 C-128.525625 55.05125 -128.05125 54.1025 -127.5625 53.125 C-126.22325091 50.44650182 -125.3220114 48.81722631 -123 47 C-122.34 47 -121.68 47 -121 47 C-120.84724609 46.11441406 -120.84724609 46.11441406 -120.69140625 45.2109375 C-118.61798904 38.58068813 -110.42873088 33.85674226 -105 30 C-104.18015625 29.39800781 -103.3603125 28.79601562 -102.515625 28.17578125 C-97.7981826 24.76635697 -93.40921435 22.20035838 -88 20 C-84.60992011 18.17520609 -81.24744842 16.31106696 -77.890625 14.42578125 C-75 13 -75 13 -72 13 C-71.67 12.01 -71.34 11.02 -71 10 C-69.21484375 8.796875 -69.21484375 8.796875 -66.9375 7.75 C-65.83728516 7.21632812 -65.83728516 7.21632812 -64.71484375 6.671875 C-61.62882942 5.90814196 -59.20853507 6.31349567 -56.09887695 6.79638672 C-52.67533326 7.1285067 -49.45063344 6.41430755 -46.125 5.6875 C-45.42157471 5.54505859 -44.71814941 5.40261719 -43.9934082 5.25585938 C-41.99316784 4.84904643 -39.99643935 4.42507437 -38 4 C-31.50176633 2.63762522 -24.9828657 1.42553324 -18.4375 0.3125 C-17.64561279 0.16876953 -16.85372559 0.02503906 -16.0378418 -0.12304688 C-10.42750437 -1.04927908 -5.62719267 -0.83761409 0 0 Z M24 13 C24.66 13.66 25.32 14.32 26 15 C26.66 14.34 27.32 13.68 28 13 C26.68 13 25.36 13 24 13 Z M55 29 C55 32 55 32 55 32 Z M-9 38 C-9 38.33 -9 38.66 -9 39 C-6.69 39 -4.38 39 -2 39 C-2 38.67 -2 38.34 -2 38 C-4.31 38 -6.62 38 -9 38 Z M-2 39 C-0.23470405 40.21690533 -0.23470405 40.21690533 2 41 C4.23470405 40.21690533 4.23470405 40.21690533 6 39 C3.36 39 0.72 39 -2 39 Z M-37 40 C-33 41 -33 41 -33 41 Z M87 63 C90.17539556 66.42578949 90.17539556 66.42578949 94 69 C92.9024777 66.00675737 92.32317108 65.15389099 89.375 63.75 C88.59125 63.5025 87.8075 63.255 87 63 Z M97 69 C96.34 69.66 95.68 70.32 95 71 C95.99 71.33 96.98 71.66 98 72 C97.67 71.01 97.34 70.02 97 69 Z M-180 164 C-180 164.66 -180 165.32 -180 166 C-179.34 166 -178.68 166 -178 166 C-178 165.34 -178 164.68 -178 164 C-178.66 164 -179.32 164 -180 164 Z " fill="#FDA603" transform="translate(281,191)"/>
<path d="M0 0 C13.82057425 -0.51355139 27.81775648 3.23874095 40.01171875 9.7421875 C43.52468141 11.3953464 46.96589007 12.31011909 50.734375 13.203125 C53.99015995 14.57561121 55.75220752 16.71311187 58.19921875 19.2421875 C60.14446316 20.62454153 62.12522383 21.95814441 64.13671875 23.2421875 C70.08013873 27.1218187 75.2521898 31.13557697 80.19921875 36.2421875 C80.96234375 36.9846875 81.72546875 37.7271875 82.51171875 38.4921875 C88.36178869 44.47830558 93.11443403 50.49169554 97.5 57.63671875 C99.0157265 59.96083272 100.58640574 61.94539295 102.44921875 63.9921875 C109.09107282 71.57275695 108.85670622 79.48577005 109.19921875 89.2421875 C109.27849609 90.62664062 109.27849609 90.62664062 109.359375 92.0390625 C109.53708093 96.64396403 109.14359781 99.61833635 106.19921875 103.2421875 C105.20921875 103.7371875 105.20921875 103.7371875 104.19921875 104.2421875 C103.20921875 103.9121875 102.21921875 103.5821875 101.19921875 103.2421875 C101.19921875 103.9021875 101.19921875 104.5621875 101.19921875 105.2421875 C98.3068756 106.06857126 96.31179444 106.2421875 93.19921875 106.2421875 C93.85921875 107.5621875 94.51921875 108.8821875 95.19921875 110.2421875 C94.19921875 111.2421875 94.19921875 111.2421875 91.32421875 111.3046875 C90.29296875 111.2840625 89.26171875 111.2634375 88.19921875 111.2421875 C87.20921875 111.2421875 86.21921875 111.2421875 85.19921875 111.2421875 C85.85921875 109.5921875 86.51921875 107.9421875 87.19921875 106.2421875 C85.54921875 106.2421875 83.89921875 106.2421875 82.19921875 106.2421875 C80.16191983 102.43461428 78.37081502 98.8534992 77.19921875 94.6796875 C76.34851853 91.75540548 75.61774256 90.20329566 74.01171875 87.7421875 C72.19921875 84.2421875 72.19921875 84.2421875 72.82421875 80.8671875 C73.32059265 76.06890645 71.79432476 74.17718129 69.01953125 70.3828125 C66.81800297 67.79389083 64.46708957 65.64042059 61.8125 63.52734375 C59.78550424 61.91261831 57.9937366 60.10848607 56.19921875 58.2421875 C56.52921875 57.2521875 56.85921875 56.2621875 57.19921875 55.2421875 C55.95037605 53.6588622 55.95037605 53.6588622 54.19921875 52.2421875 C52.87921875 52.2421875 51.55921875 52.2421875 50.19921875 52.2421875 C47.33496535 50.9847104 44.66019126 49.52712255 42 47.8828125 C33.5217668 42.84520993 24.68681528 40.58133004 15.19921875 38.2421875 C13.99136719 37.93152344 12.78351563 37.62085938 11.5390625 37.30078125 C4.77342709 35.6315482 -1.84430355 34.64647178 -8.80078125 34.2421875 C-8.80078125 34.9021875 -8.80078125 35.5621875 -8.80078125 36.2421875 C-14.28753321 38.11001796 -19.02271101 38.4780271 -24.80078125 38.2421875 C-24.80078125 38.9021875 -24.80078125 39.5621875 -24.80078125 40.2421875 C-25.44402344 40.57089844 -26.08726562 40.89960938 -26.75 41.23828125 C-40.86707731 48.66938186 -55.75342964 57.84349059 -64.80078125 71.2421875 C-66.08611284 73.09842582 -67.37932859 74.94868777 -68.6796875 76.79443359 C-69.58552332 78.08124951 -70.48412658 79.37319071 -71.375 80.67041016 C-72.46735666 82.23025123 -73.6287394 83.74129938 -74.80078125 85.2421875 C-75.46078125 85.2421875 -76.12078125 85.2421875 -76.80078125 85.2421875 C-77.17203125 86.263125 -77.17203125 86.263125 -77.55078125 87.3046875 C-78.72223157 90.05759575 -80.09569218 92.58436637 -81.59765625 95.16796875 C-85.59381073 102.05744287 -89.24095511 108.83460077 -91.94140625 116.34375 C-92.80078125 118.2421875 -92.80078125 118.2421875 -94.80078125 119.2421875 C-95.46078125 120.2321875 -96.12078125 121.2221875 -96.80078125 122.2421875 C-99.11078125 121.5821875 -101.42078125 120.9221875 -103.80078125 120.2421875 C-104.29578125 117.7671875 -104.29578125 117.7671875 -104.80078125 115.2421875 C-105.46078125 115.2421875 -106.12078125 115.2421875 -106.80078125 115.2421875 C-106.80078125 115.9021875 -106.80078125 116.5621875 -106.80078125 117.2421875 C-107.79078125 117.2421875 -108.78078125 117.2421875 -109.80078125 117.2421875 C-109.80078125 115.2621875 -109.80078125 113.2821875 -109.80078125 111.2421875 C-110.79078125 110.9121875 -111.78078125 110.5821875 -112.80078125 110.2421875 C-116.1616795 97.93434634 -108.47178181 80.72498851 -102.515625 70.00390625 C-95.90275609 58.60925921 -95.90275609 58.60925921 -92.80078125 56.2421875 C-91.81078125 56.2421875 -90.82078125 56.2421875 -89.80078125 56.2421875 C-89.80078125 55.5821875 -89.80078125 54.9221875 -89.80078125 54.2421875 C-89.14078125 54.2421875 -88.48078125 54.2421875 -87.80078125 54.2421875 C-87.72819092 53.35611816 -87.65560059 52.47004883 -87.58081055 51.55712891 C-86.63615758 47.54257553 -85.24069049 46.07652263 -82.3203125 43.203125 C-80.94456055 41.83800781 -80.94456055 41.83800781 -79.54101562 40.4453125 C-79.05979248 39.98060547 -78.57856934 39.51589844 -78.08276367 39.03710938 C-76.62290432 37.62648601 -75.18240454 36.19822743 -73.74414062 34.765625 C-62.01609664 23.2421875 -62.01609664 23.2421875 -57.80078125 23.2421875 C-57.57003906 22.69949219 -57.33929688 22.15679687 -57.1015625 21.59765625 C-55.41550276 18.54452105 -53.3068568 16.15830532 -50.98828125 13.5546875 C-50.13621094 12.58144531 -49.28414063 11.60820312 -48.40625 10.60546875 C-45.57239697 8.03503234 -44.51237293 7.60950898 -40.80078125 7.2421875 C-37.05078125 6.4921875 -37.05078125 6.4921875 -33.30078125 5.7421875 C-29.55078125 4.9921875 -29.55078125 4.9921875 -25.80078125 4.2421875 C-24.82109375 4.04625 -23.84140625 3.8503125 -22.83203125 3.6484375 C-22.16171875 3.514375 -21.49140625 3.3803125 -20.80078125 3.2421875 C-20.80078125 2.5821875 -20.80078125 1.9221875 -20.80078125 1.2421875 C-15.90093767 0.90633531 -11.00127584 0.61058797 -6.09619141 0.36230469 C-4.06332351 0.25592615 -2.03152922 0.12944996 0 0 Z M105.19921875 81.2421875 C106.19921875 84.2421875 106.19921875 84.2421875 106.19921875 84.2421875 Z M105.19921875 97.2421875 C105.52921875 98.2321875 105.85921875 99.2221875 106.19921875 100.2421875 C106.19921875 99.2521875 106.19921875 98.2621875 106.19921875 97.2421875 C105.86921875 97.2421875 105.53921875 97.2421875 105.19921875 97.2421875 Z " fill="#3EC5FC" transform="translate(252.80078125,249.7578125)"/>
<path d="M0 0 C1.21236328 0.01353516 1.21236328 0.01353516 2.44921875 0.02734375 C3.37154297 0.04474609 3.37154297 0.04474609 4.3125 0.0625 C4.3125 0.7225 4.3125 1.3825 4.3125 2.0625 C5.56804687 2.00449219 6.82359375 1.94648438 8.1171875 1.88671875 C25.35688673 1.33609456 25.35688673 1.33609456 33.3125 7.0625 C33.3125 7.7225 33.3125 8.3825 33.3125 9.0625 C34.1375 9.248125 34.9625 9.43375 35.8125 9.625 C40.50233252 11.55118121 43.66791683 14.60292105 47.3125 18.0625 C47.8075 16.5775 47.8075 16.5775 48.3125 15.0625 C56.18098296 20.0675651 63.49972258 24.78452284 68.3125 33.0625 C68.3125 33.7225 68.3125 34.3825 68.3125 35.0625 C69.3025 35.3925 70.2925 35.7225 71.3125 36.0625 C73.00066933 37.70738294 74.66603315 39.37587542 76.3125 41.0625 C77.42625 41.866875 77.42625 41.866875 78.5625 42.6875 C80.3125 44.0625 80.3125 44.0625 81.3125 47.0625 C82.3025 47.3925 83.2925 47.7225 84.3125 48.0625 C86.18237216 51.80224432 85.61891834 56.53040828 84.8125 60.5625 C84.6475 61.0575 84.4825 61.5525 84.3125 62.0625 C85.3025 62.3925 86.2925 62.7225 87.3125 63.0625 C87.3125 63.7225 87.3125 64.3825 87.3125 65.0625 C86.6525 65.0625 85.9925 65.0625 85.3125 65.0625 C85.3125 65.7225 85.3125 66.3825 85.3125 67.0625 C83.9925 67.0625 82.6725 67.0625 81.3125 67.0625 C80.9825 68.0525 80.6525 69.0425 80.3125 70.0625 C78.25 71.25 78.25 71.25 76.3125 72.0625 C75.6525 71.4025 74.9925 70.7425 74.3125 70.0625 C74.3125 70.7225 74.3125 71.3825 74.3125 72.0625 C73.6525 72.0625 72.9925 72.0625 72.3125 72.0625 C72.3125 71.4025 72.3125 70.7425 72.3125 70.0625 C71.6525 70.7225 70.9925 71.3825 70.3125 72.0625 C70.3125 73.0525 70.3125 74.0425 70.3125 75.0625 C67.875 74.25 67.875 74.25 65.3125 73.0625 C64.9825 72.0725 64.6525 71.0825 64.3125 70.0625 C63.69375 69.753125 63.075 69.44375 62.4375 69.125 C59.845107 67.8288035 58.98950344 66.41030481 57.3125 64.0625 C54.14985 60.61747307 54.14985 60.61747307 50.3125 58.0625 C50.3125 57.4025 50.3125 56.7425 50.3125 56.0625 C49.673125 55.794375 49.03375 55.52625 48.375 55.25 C46.3125 54.0625 46.3125 54.0625 45.3125 51.0625 C43.44104165 50.6201553 41.56783849 50.18417968 39.6875 49.78125 C34.36310294 48.16991931 29.73565727 44.63092807 25.09765625 41.62890625 C19.19686151 38.03294273 13.27966488 36.08100509 6.3125 36.0625 C3.01934787 36.98129428 0.27265558 38.38445002 -2.6875 40.0625 C-3.6775 40.3925 -4.6675 40.7225 -5.6875 41.0625 C-7.3379278 42.12828473 -8.96035938 43.23791844 -10.5625 44.375 C-11.45066406 45.00535156 -12.33882812 45.63570313 -13.25390625 46.28515625 C-15.03421962 47.58538512 -16.77852325 48.9353186 -18.5 50.3125 C-20.6875 52.0625 -20.6875 52.0625 -23.25 53.5 C-26.06416092 55.30394931 -27.63982544 57.4499497 -29.6875 60.0625 C-30.3475 60.0625 -31.0075 60.0625 -31.6875 60.0625 C-31.831875 61.17625 -31.97625 62.29 -32.125 63.4375 C-32.6875 67.0625 -32.6875 67.0625 -33.6875 69.0625 C-34.3475 69.0625 -35.0075 69.0625 -35.6875 69.0625 C-35.6875 70.3825 -35.6875 71.7025 -35.6875 73.0625 C-37.1725 73.5575 -37.1725 73.5575 -38.6875 74.0625 C-39.6775 74.5575 -39.6775 74.5575 -40.6875 75.0625 C-42.1725 74.5675 -42.1725 74.5675 -43.6875 74.0625 C-44.0175 73.4025 -44.3475 72.7425 -44.6875 72.0625 C-45.3475 73.0525 -46.0075 74.0425 -46.6875 75.0625 C-47.3475 75.0625 -48.0075 75.0625 -48.6875 75.0625 C-49.0175 76.0525 -49.3475 77.0425 -49.6875 78.0625 C-50.6775 77.4025 -51.6675 76.7425 -52.6875 76.0625 C-52.0275 73.4225 -51.3675 70.7825 -50.6875 68.0625 C-52.3375 69.0525 -53.9875 70.0425 -55.6875 71.0625 C-55.3575 68.0925 -55.0275 65.1225 -54.6875 62.0625 C-55.6775 64.5375 -55.6775 64.5375 -56.6875 67.0625 C-57.3475 67.0625 -58.0075 67.0625 -58.6875 67.0625 C-59.08034775 55.82268932 -59.08034775 55.82268932 -56.6875 52.0625 C-55.90375 51.629375 -55.12 51.19625 -54.3125 50.75 C-51.22673956 48.76629686 -50.34760315 46.73494145 -48.8515625 43.45703125 C-47.46353951 40.60180276 -45.86518039 37.94499722 -44.1875 35.25 C-43.6203125 34.33605469 -43.053125 33.42210937 -42.46875 32.48046875 C-40.71538471 30.10035227 -39.06846386 28.76527948 -36.6875 27.0625 C-34.73829157 24.31535366 -34.73829157 24.31535366 -33.8125 22.125 C-32.44451634 19.61702996 -30.83147987 17.93848238 -28.6875 16.0625 C-28.0275 16.0625 -27.3675 16.0625 -26.6875 16.0625 C-26.6875 15.4025 -26.6875 14.7425 -26.6875 14.0625 C-25.57375 13.815 -24.46 13.5675 -23.3125 13.3125 C-19.64134802 12.45244661 -19.64134802 12.45244661 -18.25 9.9375 C-17.9715625 9.009375 -17.9715625 9.009375 -17.6875 8.0625 C-17.0275 8.0625 -16.3675 8.0625 -15.6875 8.0625 C-15.6875 7.4025 -15.6875 6.7425 -15.6875 6.0625 C-14.04296875 4.80859375 -14.04296875 4.80859375 -11.875 3.5 C-11.16730469 3.06558594 -10.45960938 2.63117188 -9.73046875 2.18359375 C-6.37916163 0.34453994 -3.75365478 -0.05440079 0 0 Z " fill="#A3C120" transform="translate(242.6875,296.9375)"/>
<path d="M0 0 C0.66 0 1.32 0 2 0 C1.67 0.99 1.34 1.98 1 3 C-1.0625 3.6875 -1.0625 3.6875 -3 4 C-3.16681109 6.91652174 -3.16681109 6.91652174 -3 10 C-2.34 10.66 -1.68 11.32 -1 12 C-1.66 12 -2.32 12 -3 12 C-3.33 13.65 -3.66 15.3 -4 17 C-5.32 17 -6.64 17 -8 17 C-8.33 17.66 -8.66 18.32 -9 19 C-9.99 19 -10.98 19 -12 19 C-11.67 19.99 -11.34 20.98 -11 22 C-12.65 23.32 -14.3 24.64 -16 26 C-16.66 25.67 -17.32 25.34 -18 25 C-17.67 25.99 -17.34 26.98 -17 28 C-18.4375 31.1875 -18.4375 31.1875 -20 34 C-19.34 34 -18.68 34 -18 34 C-18.99 36.475 -18.99 36.475 -20 39 C-20.66 38.67 -21.32 38.34 -22 38 C-22.19335938 38.73605469 -22.38671875 39.47210938 -22.5859375 40.23046875 C-22.84632813 41.20628906 -23.10671875 42.18210937 -23.375 43.1875 C-23.63023437 44.15042969 -23.88546875 45.11335938 -24.1484375 46.10546875 C-24.94766296 48.82210207 -25.9031362 51.39137175 -27 54 C-26.34 54.33 -25.68 54.66 -25 55 C-26.32 55.66 -27.64 56.32 -29 57 C-28.67 54.03 -28.34 51.06 -28 48 C-28.99 50.475 -28.99 50.475 -30 53 C-30.66 53 -31.32 53 -32 53 C-32.39284775 41.76018932 -32.39284775 41.76018932 -30 38 C-29.21625 37.566875 -28.4325 37.13375 -27.625 36.6875 C-24.53923956 34.70379686 -23.66010315 32.67244145 -22.1640625 29.39453125 C-20.77603951 26.53930276 -19.17768039 23.88249722 -17.5 21.1875 C-16.9328125 20.27355469 -16.365625 19.35960937 -15.78125 18.41796875 C-14.02788471 16.03785227 -12.38096386 14.70277948 -10 13 C-8.05079157 10.25285366 -8.05079157 10.25285366 -7.125 8.0625 C-5.75701634 5.55452996 -4.14397987 3.87598238 -2 2 C-1.34 2 -0.68 2 0 2 C0 1.34 0 0.68 0 0 Z " fill="#A7C330" transform="translate(216,311)"/>
<path d="M0 0 C2.31 1.65 4.62 3.3 7 5 C7.33 4.01 7.66 3.02 8 2 C15.86848296 7.0050651 23.18722258 11.72202284 28 20 C28 20.66 28 21.32 28 22 C28.99 22.33 29.98 22.66 31 23 C32.68816933 24.64488294 34.35353315 26.31337542 36 28 C37.31175986 29.02813611 38.6369893 30.04084432 40 31 C39.67 31.99 39.34 32.98 39 34 C38.67 33.34 38.34 32.68 38 32 C36.02919843 31.25723969 36.02919843 31.25723969 34 31 C33.505 31.495 33.505 31.495 33 32 C31.125 32.75 31.125 32.75 29 33 C27.25 31.75 27.25 31.75 26 30 C26 29.01 26 28.02 26 27 C26.99 26.67 27.98 26.34 29 26 C29.33 25.34 29.66 24.68 30 24 C29.38769531 23.91105469 28.77539062 23.82210938 28.14453125 23.73046875 C25.3981017 22.79498182 25.01351271 21.84397882 23.6875 19.3125 C20.85771415 14.42628593 17.09100308 10.54550154 12 8 C11.67 9.65 11.34 11.3 11 13 C9.68 13.33 8.36 13.66 7 14 C4.11336032 9.48178138 4.11336032 9.48178138 3.5 6.875 C2.87783863 4.54189487 1.71692441 3.64227553 0 2 C0 1.34 0 0.68 0 0 Z " fill="#A6BD41" transform="translate(283,310)"/>
<path d="M0 0 C0.99 0 1.98 0 3 0 C3 0.66 3 1.32 3 2 C4.00546875 1.97421875 5.0109375 1.9484375 6.046875 1.921875 C9.94645449 1.99894179 13.43245604 2.47327028 17.25 3.25 C19.05210937 3.59804687 19.05210937 3.59804687 20.890625 3.953125 C24.2634898 5.08871265 25.26708196 5.96111474 27 9 C27.680625 7.7625 27.680625 7.7625 28.375 6.5 C28.91125 5.675 29.4475 4.85 30 4 C30.66 4 31.32 4 32 4 C31.9071875 5.11375 31.9071875 5.11375 31.8125 6.25 C32.03307077 9.48503792 32.99745065 10.5401756 35 13 C29.23621475 12.67096502 23.86706675 12.05281982 18.3125 10.4375 C10.90677785 8.42751481 3.60297535 8.73949196 -4 9 C-4 8.34 -4 7.68 -4 7 C1.94 6.505 1.94 6.505 8 6 C6.02 6 4.04 6 2 6 C2.33 5.01 2.66 4.02 3 3 C2.01 3 1.02 3 0 3 C0 2.01 0 1.02 0 0 Z M15 6 C16.76529595 7.21690533 16.76529595 7.21690533 19 8 C21.23470405 7.21690533 21.23470405 7.21690533 23 6 C20.36 6 17.72 6 15 6 Z " fill="#F8AB1D" transform="translate(264,224)"/>
<path d="M0 0 C1.21236328 0.01353516 1.21236328 0.01353516 2.44921875 0.02734375 C3.37154297 0.04474609 3.37154297 0.04474609 4.3125 0.0625 C4.3125 0.7225 4.3125 1.3825 4.3125 2.0625 C7.9425 2.0625 11.5725 2.0625 15.3125 2.0625 C15.3125 2.3925 15.3125 2.7225 15.3125 3.0625 C14.43207031 3.09988281 13.55164063 3.13726562 12.64453125 3.17578125 C11.48308594 3.24152344 10.32164062 3.30726563 9.125 3.375 C7.97644531 3.43300781 6.82789063 3.49101562 5.64453125 3.55078125 C2.14572637 4.08811236 0.24411875 5.16314137 -2.6875 7.0625 C-5 6.75 -5 6.75 -6.6875 6.0625 C-6.873125 6.805 -7.05875 7.5475 -7.25 8.3125 C-8.85402091 11.38106175 -10.54375918 12.80129704 -13.6015625 14.4140625 C-17.34537582 15.57786964 -20.91625289 14.84924543 -24.6875 14.0625 C-24.6875 13.7325 -24.6875 13.4025 -24.6875 13.0625 C-23.90375 12.98 -23.12 12.8975 -22.3125 12.8125 C-19.54000896 12.33443661 -19.54000896 12.33443661 -18.375 10 C-18.148125 9.360625 -17.92125 8.72125 -17.6875 8.0625 C-17.0275 8.0625 -16.3675 8.0625 -15.6875 8.0625 C-15.6875 7.4025 -15.6875 6.7425 -15.6875 6.0625 C-14.04296875 4.80859375 -14.04296875 4.80859375 -11.875 3.5 C-11.16730469 3.06558594 -10.45960938 2.63117188 -9.73046875 2.18359375 C-6.37916163 0.34453994 -3.75365478 -0.05440079 0 0 Z " fill="#A4C227" transform="translate(242.6875,296.9375)"/>
<path d="M0 0 C3.3 0.33 6.6 0.66 10 1 C10 1.66 10 2.32 10 3 C14.455 2.505 14.455 2.505 19 2 C16.06300283 3.95799812 15.19460884 4.28289137 11.875 4.5625 C11.0809375 4.63726562 10.286875 4.71203125 9.46875 4.7890625 C8.24671875 4.89347656 8.24671875 4.89347656 7 5 C1.42392059 5.50184715 -3.65676147 6.29471111 -9 8 C-9 8.66 -9 9.32 -9 10 C-10.78857422 10.39832031 -10.78857422 10.39832031 -12.61328125 10.8046875 C-14.17976175 11.16113217 -15.74616398 11.51792097 -17.3125 11.875 C-18.09818359 12.04902344 -18.88386719 12.22304687 -19.69335938 12.40234375 C-20.45068359 12.57636719 -21.20800781 12.75039062 -21.98828125 12.9296875 C-22.68477783 13.08679199 -23.38127441 13.24389648 -24.09887695 13.40576172 C-26.29734212 13.99513393 -26.29734212 13.99513393 -29 16 C-29.99 16 -30.98 16 -32 16 C-32 15.34 -32 14.68 -32 14 C-31.34 14 -30.68 14 -30 14 C-29.67 13.01 -29.34 12.02 -29 11 C-28.01 11.33 -27.02 11.66 -26 12 C-26 11.01 -26 10.02 -26 9 C-23.03 9.33 -20.06 9.66 -17 10 C-17 9.34 -17 8.68 -17 8 C-17.99 7.67 -18.98 7.34 -20 7 C-19.195625 6.731875 -18.39125 6.46375 -17.5625 6.1875 C-16.716875 5.795625 -15.87125 5.40375 -15 5 C-14.67 4.01 -14.34 3.02 -14 2 C-11.525 2.495 -11.525 2.495 -9 3 C-9 3.66 -9 4.32 -9 5 C-6.03 4.34 -3.06 3.68 0 3 C0 2.01 0 1.02 0 0 Z " fill="#FBAE15" transform="translate(236,231)"/>
<path d="M0 0 C4.2742558 1.5830577 6.26531794 4.50568404 9 8 C8.34 8 7.68 8 7 8 C7.8971875 9.546875 7.8971875 9.546875 8.8125 11.125 C12.68945978 17.96506476 12.68945978 17.96506476 14 21 C13.67 21.99 13.34 22.98 13 24 C13 23.34 13 22.68 13 22 C12.34 22 11.68 22 11 22 C11 21.01 11 20.02 11 19 C9.02 18.67 7.04 18.34 5 18 C5.33 17.01 5.66 16.02 6 15 C6.66 15.33 7.32 15.66 8 16 C7.67 15.34 7.34 14.68 7 14 C6.01 13.67 5.02 13.34 4 13 C2.29413425 11.37347684 0.6222454 9.70993434 -1 8 C0.5625 9.25 0.5625 9.25 2 11 C1.58984375 13.109375 1.58984375 13.109375 1 15 C0.44570313 14.50628906 -0.10859375 14.01257813 -0.6796875 13.50390625 C-1.40414063 12.86324219 -2.12859375 12.22257812 -2.875 11.5625 C-3.59429687 10.92441406 -4.31359375 10.28632813 -5.0546875 9.62890625 C-6.90750491 7.94985535 -6.90750491 7.94985535 -9 7 C-9 5.68 -9 4.36 -9 3 C-7.68 3 -6.36 3 -5 3 C-5 3.99 -5 4.98 -5 6 C-3.02 5.34 -1.04 4.68 1 4 C0.67 2.68 0.34 1.36 0 0 Z " fill="#F9A818" transform="translate(371,247)"/>
<path d="M0 0 C-0.99 0.495 -0.99 0.495 -2 1 C-2 1.66 -2 2.32 -2 3 C-1.18015625 3.19335938 -0.3603125 3.38671875 0.484375 3.5859375 C1.56203125 3.84632813 2.6396875 4.10671875 3.75 4.375 C4.81734375 4.63023437 5.8846875 4.88546875 6.984375 5.1484375 C9.55852722 5.87533541 11.67600186 6.7026224 14 8 C10.65494128 9.67252936 7.27424211 8.1399983 3.7265625 7.375 C0.97569609 6.99665734 -0.38070752 7.27465747 -3 8 C-5.04120715 8.04331474 -7.08372763 8.04012329 -9.125 8 C-13.21839428 7.79182142 -13.21839428 7.79182142 -17 9 C-17 8.01 -17 7.02 -17 6 C-16.34 5.67 -15.68 5.34 -15 5 C-15 4.34 -15 3.68 -15 3 C-17.64 2.67 -20.28 2.34 -23 2 C-23 1.67 -23 1.34 -23 1 C-15.06303572 -0.36610623 -7.97410877 -1.37484634 0 0 Z " fill="#FAA712" transform="translate(281,191)"/>
<path d="M0 0 C0.99 0.33 1.98 0.66 3 1 C5.17996296 12.60908506 6.58246367 24.0371601 7.13574219 35.83642578 C7.25196632 38.29153647 7.38669755 40.74517297 7.5234375 43.19921875 C7.60523391 44.78379944 7.68600289 46.36843357 7.765625 47.953125 C7.80512268 48.67502014 7.84462036 49.39691528 7.88531494 50.14068604 C8.0682628 54.24169649 7.82868059 57.97924809 7 62 C5.125 61.875 5.125 61.875 3 61 C1.75 57.9375 1.75 57.9375 1 55 C1.66 55 2.32 55 3 55 C3 54.34 3 53.68 3 53 C4.485 52.505 4.485 52.505 6 52 C5.855625 51.04738281 5.71125 50.09476562 5.5625 49.11328125 C4.90181909 44.48502537 4.45149921 39.84005824 4 35.1875 C3.87625 33.92969727 3.87625 33.92969727 3.75 32.64648438 C3.58318638 30.95098035 3.41774272 29.255341 3.25366211 27.55957031 C3.08266827 25.83416184 2.9036189 24.1095351 2.71704102 22.38574219 C2.19721041 17.5253951 1.88541722 12.77078147 1.9375 7.875 C1.94652344 6.75867188 1.95554687 5.64234375 1.96484375 4.4921875 C1.97644531 3.66976563 1.98804688 2.84734375 2 2 C1.34 2 0.68 2 0 2 C0 1.34 0 0.68 0 0 Z " fill="#F09EBB" transform="translate(451,276)"/>
<path d="M0 0 C1.32 0 2.64 0 4 0 C5.8527155 23.25819631 5.8527155 23.25819631 2 28 C1.34 28.33 0.68 28.66 0 29 C-0.99 28.67 -1.98 28.34 -3 28 C-3 28.66 -3 29.32 -3 30 C-4.32 30.33 -5.64 30.66 -7 31 C-6.505 29.515 -6.505 29.515 -6 28 C-5.34 28 -4.68 28 -4 28 C-4 26.02 -4 24.04 -4 22 C-3.34 22.33 -2.68 22.66 -2 23 C-0.78404702 18.13618809 -0.19379555 12.74109514 -1.625 7.875 C-2.20980772 4.9509614 -1.05001132 2.71767637 0 0 Z M1 6 C2 9 2 9 2 9 Z M1 22 C1.33 22.99 1.66 23.98 2 25 C2 24.01 2 23.02 2 22 C1.67 22 1.34 22 1 22 Z " fill="#51CAF4" transform="translate(357,325)"/>
<path d="M0 0 C0.99 0.99 1.98 1.98 3 3 C2.34 3 1.68 3 1 3 C0.67 6.63 0.34 10.26 0 14 C0.99 14 1.98 14 3 14 C3 16.31 3 18.62 3 21 C3.78375 21.12375 4.5675 21.2475 5.375 21.375 C8 22 8 22 10 24 C10.66 24.33 11.32 24.66 12 25 C12 26.98 12 28.96 12 31 C12.66 31 13.32 31 14 31 C14 31.66 14 32.32 14 33 C12.35 32.67 10.7 32.34 9 32 C9.33 30.68 9.66 29.36 10 28 C8.01508358 28.26676204 8.01508358 28.26676204 6 29 C5.67 29.99 5.34 30.98 5 32 C4.67 31.34 4.34 30.68 4 30 C3.34 30 2.68 30 2 30 C0.00214565 25.8794254 -0.17835515 22.54805635 0 18 C-0.33 18.33 -0.66 18.66 -1 19 C-1.33 19 -1.66 19 -2 19 C-1.8595017 16.2079699 -1.71284617 13.41650204 -1.5625 10.625 C-1.52318359 9.8309375 -1.48386719 9.036875 -1.44335938 8.21875 C-1.11328125 2.2265625 -1.11328125 2.2265625 0 0 Z M4 23 C4 23.66 4 24.32 4 25 C4.66 25 5.32 25 6 25 C6 24.34 6 23.68 6 23 C5.34 23 4.68 23 4 23 Z " fill="#F4A921" transform="translate(97,332)"/>
<path d="M0 0 C3.94616352 0.21573559 7.52819738 1.10432066 11.3046875 2.1875 C11.99304688 2.37828125 12.68140625 2.5690625 13.390625 2.765625 C15.07222921 3.23273728 16.75124135 3.7091642 18.4296875 4.1875 C18.4296875 4.8475 18.4296875 5.5075 18.4296875 6.1875 C20.0796875 5.8575 21.7296875 5.5275 23.4296875 5.1875 C23.9246875 6.1775 23.9246875 6.1775 24.4296875 7.1875 C23.7696875 7.1875 23.1096875 7.1875 22.4296875 7.1875 C22.9246875 8.6725 22.9246875 8.6725 23.4296875 10.1875 C21.49060557 9.23496853 19.57874466 8.27422416 17.7109375 7.1875 C11.48711105 3.69342199 3.86257613 0.95903086 -3.234375 2.92578125 C-5.42743676 3.90801575 -7.48171781 5.00351957 -9.5703125 6.1875 C-10.5603125 6.5175 -11.5503125 6.8475 -12.5703125 7.1875 C-17.77753582 10.55013065 -22.80831017 14.21916472 -27.5703125 18.1875 C-28.2303125 17.8575 -28.8903125 17.5275 -29.5703125 17.1875 C-28.6628125 16.506875 -27.7553125 15.82625 -26.8203125 15.125 C-24.35747752 13.11930376 -23.07127277 11.43989436 -21.7578125 8.5625 C-20.11075692 5.40564348 -18.61368894 4.46891688 -15.2578125 3.3125 C-11.39288052 2.26481596 -7.53830489 1.68349905 -3.5703125 1.1875 C-2.5703125 0.1875 -2.5703125 0.1875 0 0 Z " fill="#A8C03D" transform="translate(249.5703125,330.8125)"/>
<path d="M0 0 C-2.76223278 2.76223278 -5.20706617 2.57856291 -9 3 C-9.2165625 3.928125 -9.2165625 3.928125 -9.4375 4.875 C-10 7 -10 7 -11 9 C-11.515625 8.7525 -12.03125 8.505 -12.5625 8.25 C-15.45442481 7.95339233 -16.09843228 8.49191877 -18.5 10 C-21.72916667 12.02777778 -21.72916667 12.02777778 -24.4375 11.75 C-24.953125 11.5025 -25.46875 11.255 -26 11 C-26 10.34 -26 9.68 -26 9 C-28.31 8.34 -30.62 7.68 -33 7 C-33 6.34 -33 5.68 -33 5 C-31.97261719 4.89042969 -30.94523438 4.78085938 -29.88671875 4.66796875 C-22.46336748 3.83277438 -15.46297434 2.7520843 -8.28515625 0.59765625 C-5.47587928 -0.13707773 -2.88847518 -0.23420069 0 0 Z " fill="#F8A81A" transform="translate(256,193)"/>
<path d="M0 0 C0.66 0 1.32 0 2 0 C2 2.31 2 4.62 2 7 C0.68 7 -0.64 7 -2 7 C-2 10.3 -2 13.6 -2 17 C-2.66 17 -3.32 17 -4 17 C-4 18.98 -4 20.96 -4 23 C-4.66 23 -5.32 23 -6 23 C-6 23.99 -6 24.98 -6 26 C-6.99 26 -7.98 26 -9 26 C-9.185625 27.3303125 -9.185625 27.3303125 -9.375 28.6875 C-9.95136826 31.74225179 -10.81609884 34.14470897 -12 37 C-12.68679942 39.32748694 -13.35761043 41.65986656 -14 44 C-15.80453978 38.69189579 -13.59854978 33.92724843 -12.0625 28.75 C-11.59348267 27.14801758 -11.59348267 27.14801758 -11.11499023 25.51367188 C-8.35286645 16.45145367 -4.65849117 8.22798441 0 0 Z " fill="#F196B8" transform="translate(58,277)"/>
<path d="M0 0 C1.9375 0.375 1.9375 0.375 4 1 C5.86987216 4.73974432 5.30641834 9.46790828 4.5 13.5 C4.335 13.995 4.17 14.49 4 15 C4.99 15.33 5.98 15.66 7 16 C7 16.66 7 17.32 7 18 C6.34 18 5.68 18 5 18 C5 18.66 5 19.32 5 20 C3.68 20 2.36 20 1 20 C0.67 20.99 0.34 21.98 0 23 C-2.0625 24.1875 -2.0625 24.1875 -4 25 C-4.28875 24.195625 -4.5775 23.39125 -4.875 22.5625 C-5.73262568 19.8673532 -5.73262568 19.8673532 -8 19 C-7.195625 18.87625 -6.39125 18.7525 -5.5625 18.625 C-4.716875 18.41875 -3.87125 18.2125 -3 18 C-2.67 17.34 -2.34 16.68 -2 16 C-2 16.66 -2 17.32 -2 18 C-1.34 18 -0.68 18 0 18 C0 16.68 0 15.36 0 14 C-0.99 13.67 -1.98 13.34 -3 13 C-1 10 -1 10 1.125 9.3125 C1.74375 9.209375 2.3625 9.10625 3 9 C2.5359375 8.1646875 2.5359375 8.1646875 2.0625 7.3125 C0.94238179 4.87459567 0.43962636 2.63775814 0 0 Z " fill="#A7BF36" transform="translate(323,344)"/>
<path d="M0 0 C0.33 0 0.66 0 1 0 C1.33 1.65 1.66 3.3 2 5 C3.32 5.33 4.64 5.66 6 6 C5.34 8.31 4.68 10.62 4 13 C3.01 13 2.02 13 1 13 C1.33 13.99 1.66 14.98 2 16 C1.01 16 0.02 16 -1 16 C-3.21168225 18.94236782 -3.21168225 18.94236782 -5 22 C-6.65 21.01 -8.3 20.02 -10 19 C-8.92598892 16.08482708 -8.22189824 14.22189824 -6 12 C-5.67 12.33 -5.34 12.66 -5 13 C-3.35 8.71 -1.7 4.42 0 0 Z " fill="#FAAA11" transform="translate(108,313)"/>
<path d="M0 0 C0 3 0 3 -2 6 C-2.144375 7.155 -2.28875 8.31 -2.4375 9.5 C-3 13 -3 13 -4.25 14.8125 C-6 16 -6 16 -8.625 17 C-9.40875 17.33 -10.1925 17.66 -11 18 C-12.04449911 21.13349732 -11.93423645 21.98968256 -11 25 C-12.051875 25.3403125 -12.051875 25.3403125 -13.125 25.6875 C-16.69343613 27.31656867 -19.06514511 29.40640731 -22 32 C-20.53552694 28.05102288 -18.68190364 24.51217012 -16.5625 20.875 C-15.96566406 19.84117187 -15.36882812 18.80734375 -14.75390625 17.7421875 C-13.29092911 15.45486022 -12.13757364 13.65305695 -10 12 C-9.01 12 -8.02 12 -7 12 C-7 11.34 -7 10.68 -7 10 C-6.34 10 -5.68 10 -5 10 C-4.9175 9.0925 -4.835 8.185 -4.75 7.25 C-3.90751268 3.59922161 -2.82118382 2.36615417 0 0 Z " fill="#46C7F4" transform="translate(170,294)"/>
<path d="M0 0 C2.48440102 2.16034872 3.58789525 3.70316202 4 7 C3.67 7.99 3.34 8.98 3 10 C3.99 10.33 4.98 10.66 6 11 C5.67 11.99 5.34 12.98 5 14 C4.01 14 3.02 14 2 14 C1.71125 14.969375 1.4225 15.93875 1.125 16.9375 C0 20 0 20 -2 21 C-1.67 17.7 -1.34 14.4 -1 11 C-2.32 11.33 -3.64 11.66 -5 12 C-6 11 -6 11 -6.25 8.625 C-6 6 -6 6 -4.625 4.1875 C-3 3 -3 3 -1 3 C-0.67 2.01 -0.34 1.02 0 0 Z M-1 7 C0 9 0 9 0 9 Z " fill="#F298BC" transform="translate(47,320)"/>
<path d="M0 0 C0.33 0.99 0.66 1.98 1 3 C1.78375 3.28875 2.5675 3.5775 3.375 3.875 C6.84818045 5.36350591 7.58653628 6.5035371 9 10 C9.23298657 13.01869552 9.17767367 15.97954755 9 19 C9.66 19 10.32 19 11 19 C11 19.99 11 20.98 11 22 C11.66 22 12.32 22 13 22 C13.38951724 24.43598091 13.76203193 26.87254794 14.125 29.3125 C14.23714844 30.00279297 14.34929687 30.69308594 14.46484375 31.40429688 C15.2265625 36.66015625 15.2265625 36.66015625 13 40 C12.75765625 38.98421875 12.5153125 37.9684375 12.265625 36.921875 C9.17349122 24.13367087 5.74504939 12.42161696 -1 1 C-0.67 0.67 -0.34 0.34 0 0 Z " fill="#F9B536" transform="translate(359,288)"/>
<path d="M0 0 C5.55255229 0.02400239 9.67106157 1.69974104 14.5 4.3125 C11.36650268 5.35699911 10.51031744 5.24673645 7.5 4.3125 C7.17 5.3025 6.84 6.2925 6.5 7.3125 C5.84 7.3125 5.18 7.3125 4.5 7.3125 C4.5 7.9725 4.5 8.6325 4.5 9.3125 C0.83118845 8.60695932 -2.20450534 7.03514494 -5.5 5.3125 C-5.5 4.6525 -5.5 3.9925 -5.5 3.3125 C-7.15 2.9825 -8.8 2.6525 -10.5 2.3125 C-10.5 1.9825 -10.5 1.6525 -10.5 1.3125 C-9.2934375 1.3434375 -9.2934375 1.3434375 -8.0625 1.375 C-5.06971453 1.30200523 -3.23445971 0.09483755 0 0 Z M-1.5 4.3125 C-0.84 4.9725 -0.18 5.6325 0.5 6.3125 C1.16 5.6525 1.82 4.9925 2.5 4.3125 C1.18 4.3125 -0.14 4.3125 -1.5 4.3125 Z " fill="#F9AB15" transform="translate(306.5,199.6875)"/>
<path d="M0 0 C-0.99 0.33 -1.98 0.66 -3 1 C-3 1.66 -3 2.32 -3 3 C-1.68 3 -0.36 3 1 3 C1 3.66 1 4.32 1 5 C-2.71792906 5.76048549 -5.36961831 6.12667018 -9 5 C-9.99 5 -10.98 5 -12 5 C-12.99 5 -13.98 5 -15 5 C-15 5.66 -15 6.32 -15 7 C-14.34 7 -13.68 7 -13 7 C-13 7.66 -13 8.32 -13 9 C-14.051875 9.4125 -15.10375 9.825 -16.1875 10.25 C-19.58704057 11.69411378 -22.21424307 13.55191058 -25 16 C-23.37523942 12.17863572 -20.93576341 9.39863087 -18.1875 6.3125 C-17.33542969 5.33925781 -16.48335937 4.36601562 -15.60546875 3.36328125 C-12.87396511 0.8856805 -11.59346433 0.32280273 -8 0 C-7.319375 -0.20625 -6.63875 -0.4125 -5.9375 -0.625 C-3.66384163 -1.06506291 -2.18417292 -0.70205558 0 0 Z " fill="#5AC7EB" transform="translate(220,257)"/>
<path d="M0 0 C-3.55175484 1.18391828 -7.13922718 1.8272882 -10.8125 2.5 C-11.51181641 2.63019531 -12.21113281 2.76039063 -12.93164062 2.89453125 C-16.94791746 3.63842537 -20.96861253 4.34181429 -25 5 C-25.33 6.32 -25.66 7.64 -26 9 C-26.67546875 9.01417969 -27.3509375 9.02835938 -28.046875 9.04296875 C-33.91724201 9.21557592 -33.91724201 9.21557592 -38.5 12.5625 C-38.995 13.366875 -39.49 14.17125 -40 15 C-40.66 15 -41.32 15 -42 15 C-40.50198648 11.38522825 -38.42462583 9.31379537 -35.5 6.75 C-34.7059375 6.04359375 -33.911875 5.3371875 -33.09375 4.609375 C-31 3 -31 3 -29 3 C-28.67 3.66 -28.34 4.32 -28 5 C-27.34 4.34 -26.68 3.68 -26 3 C-8.07666066 -2.3744303 -8.07666066 -2.3744303 0 0 Z " fill="#EB8EAE" transform="translate(208,134)"/>
<path d="M0 0 C2.5 2.25 2.5 2.25 5 5 C5 6.32 5 7.64 5 9 C5.66 9 6.32 9 7 9 C7.33 10.98 7.66 12.96 8 15 C8.99 15.33 9.98 15.66 11 16 C10.67 16.66 10.34 17.32 10 18 C8.53426066 17.09522263 7.07764244 16.17565859 5.625 15.25 C4.81289063 14.73953125 4.00078125 14.2290625 3.1640625 13.703125 C0.8795075 11.90517197 0.11663314 10.63397194 -1 8 C-1.556875 7.319375 -2.11375 6.63875 -2.6875 5.9375 C-3.120625 5.298125 -3.55375 4.65875 -4 4 C-3.67 3.01 -3.34 2.02 -3 1 C-2.01 0.67 -1.02 0.34 0 0 Z " fill="#EEAA2D" transform="translate(339,257)"/>
<path d="M0 0 C1.31823302 0.59155331 2.62947051 1.19871463 3.9375 1.8125 C5.03384766 2.31716797 5.03384766 2.31716797 6.15234375 2.83203125 C8 4 8 4 9 7 C10.71965161 8.60036524 10.71965161 8.60036524 12.8125 10.0625 C13.49957031 10.56910156 14.18664062 11.07570312 14.89453125 11.59765625 C16.87808872 12.91880121 18.86241389 13.95505426 21 15 C21.99 15.66 22.98 16.32 24 17 C24 17.66 24 18.32 24 19 C20.65626525 18.44271087 17.96687001 17.64826111 15 16 C15 15.34 15 14.68 15 14 C13.35 14 11.7 14 10 14 C9.67 13.34 9.34 12.68 9 12 C7.68 12.33 6.36 12.66 5 13 C5.66 11.02 6.32 9.04 7 7 C6.34 7 5.68 7 5 7 C4.67 6.01 4.34 5.02 4 4 C3.01 4.495 3.01 4.495 2 5 C2 4.01 2 3.02 2 2 C1.34 2 0.68 2 0 2 C0 1.34 0 0.68 0 0 Z " fill="#F6AC22" transform="translate(327,209)"/>
<path d="M0 0 C0.33 0 0.66 0 1 0 C1.125 6.625 1.125 6.625 0 10 C3.465 9.505 3.465 9.505 7 9 C6.83242187 9.61488281 6.66484375 10.22976563 6.4921875 10.86328125 C6.28851563 11.67152344 6.08484375 12.47976563 5.875 13.3125 C5.56175781 14.51326172 5.56175781 14.51326172 5.2421875 15.73828125 C4.72572666 18.28207233 4.72572666 18.28207233 7 21 C6.34 21 5.68 21 5 21 C5 21.66 5 22.32 5 23 C4.01 23 3.02 23 2 23 C2 21.02 2 19.04 2 17 C1.01 16.67 0.02 16.34 -1 16 C-2.03038433 12.0585998 -1.87693282 9.16384848 -1.0625 5.1875 C-0.86785156 4.21167969 -0.67320312 3.23585938 -0.47265625 2.23046875 C-0.31667969 1.49441406 -0.16070312 0.75835937 0 0 Z " fill="#55C1EC" transform="translate(141,344)"/>
<path d="M0 0 C0.99 0.66 1.98 1.32 3 2 C3.66 1.67 4.32 1.34 5 1 C7 3 7 3 7 5 C7.66 5.66 8.32 6.32 9 7 C11 9 11 9 11 11 C11.99 10.67 12.98 10.34 14 10 C14.99 12.31 15.98 14.62 17 17 C10.04239706 13.59092952 4.70496492 10.22715945 0 4 C-0.66 3.34 -1.32 2.68 -2 2 C-1.34 1.34 -0.68 0.68 0 0 Z " fill="#F6A811" transform="translate(303,232)"/>
<path d="M0 0 C0.99 0 1.98 0 3 0 C2.125 5.75 2.125 5.75 1 8 C0.34 8 -0.32 8 -1 8 C-1 9.32 -1 10.64 -1 12 C-1.99 12.33 -2.98 12.66 -4 13 C-4.99 13.495 -4.99 13.495 -6 14 C-6.99 13.67 -7.98 13.34 -9 13 C-9 11.02 -9 9.04 -9 7 C-7.824375 6.87625 -7.824375 6.87625 -6.625 6.75 C-3.85250896 6.27193661 -3.85250896 6.27193661 -2.6875 3.9375 C-2.460625 3.298125 -2.23375 2.65875 -2 2 C-1.34 2 -0.68 2 0 2 C0 1.34 0 0.68 0 0 Z " fill="#AAC344" transform="translate(208,358)"/>
<path d="M0 0 C-10.37931034 7 -10.37931034 7 -13 7 C-13.11601562 7.93972656 -13.11601562 7.93972656 -13.234375 8.8984375 C-14 11 -14 11 -15.890625 11.9765625 C-16.66921875 12.19054687 -17.4478125 12.40453125 -18.25 12.625 C-19.06597656 12.8621875 -19.88195312 13.099375 -20.72265625 13.34375 C-21.47417969 13.5603125 -22.22570312 13.776875 -23 14 C-24.3303125 14.556875 -24.3303125 14.556875 -25.6875 15.125 C-28.42914712 16.16237999 -31.10344325 16.59582929 -34 17 C-31.82292141 14.31066762 -29.47009773 13.28399803 -26.3046875 12.02734375 C-22.02352639 10.11896176 -17.97497714 7.7196674 -13.890625 5.42578125 C-11 4 -11 4 -8 4 C-7.67 3.01 -7.34 2.02 -7 1 C-2.55696203 -1.27848101 -2.55696203 -1.27848101 0 0 Z " fill="#F4B73C" transform="translate(217,200)"/>
<path d="M0 0 C0 0.66 0 1.32 0 2 C3.63 2 7.26 2 11 2 C11 2.33 11 2.66 11 3 C10.11957031 3.03738281 9.23914063 3.07476562 8.33203125 3.11328125 C7.17058594 3.17902344 6.00914062 3.24476563 4.8125 3.3125 C3.66394531 3.37050781 2.51539063 3.42851562 1.33203125 3.48828125 C-2.15950847 4.02449661 -4.06581126 5.12232842 -7 7 C-8.35085807 6.36959957 -9.68252676 5.69748583 -11 5 C-14.68203915 5.31126713 -14.68203915 5.31126713 -18 6 C-12.57151162 -0.03165375 -7.7230563 -0.30286495 0 0 Z " fill="#ABC433" transform="translate(247,297)"/>
<path d="M0 0 C0.33 0.99 0.66 1.98 1 3 C1.66 3 2.32 3 3 3 C4 10.75 4 10.75 4 13 C4.33 13.33 4.66 13.66 5 14 C5.04080783 15.99958364 5.04254356 18.00045254 5 20 C5.66 20 6.32 20 7 20 C7.2475 21.11375 7.495 22.2275 7.75 23.375 C8.61005339 27.04615198 8.61005339 27.04615198 11.125 28.4375 C11.74375 28.623125 12.3625 28.80875 13 29 C11.35 29 9.7 29 8 29 C5.96270108 25.19242678 4.17159627 21.6113117 3 17.4375 C2.15607951 14.53652332 1.3676164 12.80705532 -0.1875 10.3125 C-2 7 -2 7 -1.8125 4.75 C-1.544375 4.1725 -1.27625 3.595 -1 3 C-0.67 2.01 -0.34 1.02 0 0 Z " fill="#5CBEE7" transform="translate(327,327)"/>
<path d="M0 0 C2.64 0 5.28 0 8 0 C8.144375 1.11375 8.28875 2.2275 8.4375 3.375 C8.78372035 6.82142047 8.78372035 6.82142047 10 9 C10.63292969 9.12632812 11.26585937 9.25265625 11.91796875 9.3828125 C14 10 14 10 15.30078125 11.7421875 C15.63464844 12.44601562 15.96851563 13.14984375 16.3125 13.875 C16.65925781 14.57367188 17.00601562 15.27234375 17.36328125 15.9921875 C18 18 18 18 17 21 C16.64808594 20.41992188 16.29617188 19.83984375 15.93359375 19.2421875 C12.51402196 13.83158566 8.9918292 9.95236839 4 6 C1.5625 3.75 1.5625 3.75 0 2 C0 1.34 0 0.68 0 0 Z " fill="#59CBEE" transform="translate(309,306)"/>
<path d="M0 0 C0.66 0.33 1.32 0.66 2 1 C1.3125 2.875 1.3125 2.875 0 5 C-0.845625 5.33 -1.69125 5.66 -2.5625 6 C-3.366875 6.33 -4.17125 6.66 -5 7 C-5.67156616 8.93618425 -5.67156616 8.93618425 -6 11 C-7.375 12.75 -7.375 12.75 -9 14 C-9.99 14 -10.98 14 -12 14 C-12 15.32 -12 16.64 -12 18 C-12.66 18 -13.32 18 -14 18 C-14 18.66 -14 19.32 -14 20 C-14.99 20 -15.98 20 -17 20 C-15.82744291 16.66272214 -14.81131596 14.22562513 -12 12 C-11.34 12 -10.68 12 -10 12 C-9.90589844 11.41605469 -9.81179687 10.83210937 -9.71484375 10.23046875 C-8.84086431 7.50346185 -7.61936651 6.28384191 -5.5625 4.3125 C-4.63630859 3.40951172 -4.63630859 3.40951172 -3.69140625 2.48828125 C-2 1 -2 1 0 0 Z " fill="#F0A926" transform="translate(170,226)"/>
<path d="M0 0 C1.1446875 0.19207031 2.289375 0.38414062 3.46875 0.58203125 C6.5 1.1875 6.5 1.1875 9.5 2.1875 C11.05853267 2.40553307 12.62182651 2.59116356 14.1875 2.75 C14.99574219 2.83378906 15.80398438 2.91757812 16.63671875 3.00390625 C17.25160156 3.06449219 17.86648438 3.12507813 18.5 3.1875 C18.5 4.5075 18.5 5.8275 18.5 7.1875 C19.16 7.5175 19.82 7.8475 20.5 8.1875 C15.08918632 7.56015928 10.13178916 6.30350107 4.9375 4.6875 C0.13632372 3.20172485 -4.5041425 1.88202679 -9.5 1.1875 C-5.69731802 -1.34762132 -4.40903773 -0.76959555 0 0 Z " fill="#56CFF3" transform="translate(264.5,283.8125)"/>
<path d="M0 0 C0.33 0.66 0.66 1.32 1 2 C1.5775 2.226875 2.155 2.45375 2.75 2.6875 C6.06495052 4.62122114 8.31872326 7.55299882 10 11 C9.67 11.99 9.34 12.98 9 14 C7.35 14.33 5.7 14.66 4 15 C4 14.01 4 13.02 4 12 C2.97294756 9.62987898 1.73588818 7.59894131 0.3125 5.4375 C-0.3371875 4.2309375 -0.3371875 4.2309375 -1 3 C-0.67 2.01 -0.34 1.02 0 0 Z " fill="#F28BB0" transform="translate(429,222)"/>
<path d="M0 0 C2.458726 2.91553848 3.48267807 5.12617566 4.125 8.875 C4.28097656 9.75414062 4.43695313 10.63328125 4.59765625 11.5390625 C4.73042969 12.35117187 4.86320312 13.16328125 5 14 C5.185625 15.0725 5.37125 16.145 5.5625 17.25 C5.706875 18.1575 5.85125 19.065 6 20 C6.185625 21.11375 6.37125 22.2275 6.5625 23.375 C6.706875 24.24125 6.85125 25.1075 7 26 C6.67 25.01 6.34 24.02 6 23 C5.34 23 4.68 23 4 23 C3.89042969 22.36191406 3.78085937 21.72382813 3.66796875 21.06640625 C3.50941406 20.24011719 3.35085938 19.41382813 3.1875 18.5625 C2.96126953 17.32693359 2.96126953 17.32693359 2.73046875 16.06640625 C2.48941406 15.38449219 2.24835938 14.70257813 2 14 C1.01 13.67 0.02 13.34 -1 13 C-0.67 10.36 -0.34 7.72 0 5 C-0.66 4.67 -1.32 4.34 -2 4 C-1.34 4 -0.68 4 0 4 C0 2.68 0 1.36 0 0 Z " fill="#F2AA24" transform="translate(389,280)"/>
<path d="M0 0 C8.17251305 1.45740075 15.35276601 9.49984957 20 16 C20 16.66 20 17.32 20 18 C16.49544258 16.70201577 14.8927962 14.67445049 12.6328125 11.7890625 C9.80809967 8.69404222 6.43175131 6.27039006 3.109375 3.734375 C1 2 1 2 0 0 Z " fill="#E296A5" transform="translate(353,215)"/>
<path d="M0 0 C4.75 1.875 4.75 1.875 7 3 C7.66 2.34 8.32 1.68 9 1 C9 1.66 9 2.32 9 3 C10.98 3 12.96 3 15 3 C15.33 4.32 15.66 5.64 16 7 C15.34 7 14.68 7 14 7 C14 6.34 14 5.68 14 5 C13.34 5.66 12.68 6.32 12 7 C12 7.99 12 8.98 12 10 C9.5625 9.1875 9.5625 9.1875 7 8 C6.67 7.01 6.34 6.02 6 5 C4.67532254 4.3162955 3.34136367 3.65035814 2 3 C1.34 2.01 0.68 1.02 0 0 Z " fill="#A7BE46" transform="translate(301,362)"/>
<path d="M0 0 C0 3 0 3 -2 6 C-2.144375 7.155 -2.28875 8.31 -2.4375 9.5 C-3 13 -3 13 -4.3125 15 C-6 16 -6 16 -8 15.5625 C-8.66 15.376875 -9.32 15.19125 -10 15 C-10.99 15.66 -11.98 16.32 -13 17 C-12.25 15.0625 -12.25 15.0625 -11 13 C-8.875 12.25 -8.875 12.25 -7 12 C-7 11.34 -7 10.68 -7 10 C-6.34 10 -5.68 10 -5 10 C-4.9175 9.0925 -4.835 8.185 -4.75 7.25 C-3.90751268 3.59922161 -2.82118382 2.36615417 0 0 Z " fill="#51BADD" transform="translate(170,294)"/>
<path d="M0 0 C0.33 0.66 0.66 1.32 1 2 C0.67 2.66 0.34 3.32 0 4 C-7.625 3.125 -7.625 3.125 -11 2 C-13.73865287 1.92948886 -16.45027588 1.90642235 -19.1875 1.9375 C-20.31188477 1.94426758 -20.31188477 1.94426758 -21.45898438 1.95117188 C-23.30602383 1.96293646 -25.15302213 1.98087135 -27 2 C-27 1.34 -27 0.68 -27 0 C-5.95990881 -1.5865498 -5.95990881 -1.5865498 0 0 Z " fill="#EEA92C" transform="translate(287,231)"/>
<path d="M0 0 C2.37339853 1.85744232 2.9940468 2.97847688 3.8125 5.9375 C4.01028636 9.16801051 3.92199114 10.43734514 2 13 C-0.125 14.25 -0.125 14.25 -2 15 C-2.28875 14.195625 -2.5775 13.39125 -2.875 12.5625 C-3.73262568 9.8673532 -3.73262568 9.8673532 -6 9 C-5.195625 8.87625 -4.39125 8.7525 -3.5625 8.625 C-2.716875 8.41875 -1.87125 8.2125 -1 8 C-0.67 7.34 -0.34 6.68 0 6 C0 6.66 0 7.32 0 8 C0.66 8 1.32 8 2 8 C2 6.68 2 5.36 2 4 C1.01 3.67 0.02 3.34 -1 3 C-0.67 2.01 -0.34 1.02 0 0 Z " fill="#A7C42D" transform="translate(321,354)"/>
<path d="M0 0 C3.3 0.33 6.6 0.66 10 1 C10 1.66 10 2.32 10 3 C14.455 2.505 14.455 2.505 19 2 C16.09123167 3.93917889 15.27245932 4.27976914 12 4.5625 C11.21753906 4.6346875 10.43507812 4.706875 9.62890625 4.78125 C8.32759766 4.88953125 8.32759766 4.88953125 7 5 C4.97914448 5.18726074 2.95831106 5.37476013 0.9375 5.5625 C-0.70825269 5.70924064 -2.35405757 5.85540319 -4 6 C-4 5.34 -4 4.68 -4 4 C-2.68 3.67 -1.36 3.34 0 3 C0 2.01 0 1.02 0 0 Z " fill="#F3B52D" transform="translate(236,231)"/>
<path d="M0 0 C0.66 0.33 1.32 0.66 2 1 C2.33 1.99 2.66 2.98 3 4 C3.66 4 4.32 4 5 4 C5 3.01 5 2.02 5 1 C5.66 1 6.32 1 7 1 C6.39009109 4.55780196 5.4216319 7.6828589 4 11 C2.125 10.875 2.125 10.875 0 10 C-1.375 7.1875 -1.375 7.1875 -2 4 C-1.125 1.625 -1.125 1.625 0 0 Z " fill="#52C7FD" transform="translate(156,357)"/>
<path d="M0 0 C0.33 0.66 0.66 1.32 1 2 C-0.0004753 4.10394071 -1.1021923 6.16017298 -2.25 8.1875 C-7.24218955 16.60414544 -7.24218955 16.60414544 -9 26 C-10.32 26.33 -11.64 26.66 -13 27 C-10.78632216 17.03844972 -5.69636885 8.33935267 0 0 Z " fill="#EE8BAE" transform="translate(78,234)"/>
<path d="M0 0 C0.99 0.33 1.98 0.66 3 1 C1.8125 4.4375 1.8125 4.4375 0 8 C-2.6875 8.9375 -2.6875 8.9375 -5 9 C-5.33 10.65 -5.66 12.3 -6 14 C-6.99 14 -7.98 14 -9 14 C-7.54216321 10.92234455 -5.83759182 8.13696082 -3.9375 5.3125 C-3.41027344 4.52488281 -2.88304687 3.73726563 -2.33984375 2.92578125 C-1 1 -1 1 0 0 Z " fill="#F4AB1E" transform="translate(138,262)"/>
<path d="M0 0 C0.99 0.33 1.98 0.66 3 1 C2.34 1 1.68 1 1 1 C1 1.66 1 2.32 1 3 C-0.78857422 3.39832031 -0.78857422 3.39832031 -2.61328125 3.8046875 C-4.17976175 4.16113217 -5.74616398 4.51792097 -7.3125 4.875 C-8.49102539 5.13603516 -8.49102539 5.13603516 -9.69335938 5.40234375 C-10.45068359 5.57636719 -11.20800781 5.75039062 -11.98828125 5.9296875 C-12.68477783 6.08679199 -13.38127441 6.24389648 -14.09887695 6.40576172 C-16.29734212 6.99513393 -16.29734212 6.99513393 -19 9 C-19.99 9 -20.98 9 -22 9 C-22 8.34 -22 7.68 -22 7 C-21.34 7 -20.68 7 -20 7 C-19.67 6.01 -19.34 5.02 -19 4 C-18.01 4.33 -17.02 4.66 -16 5 C-16 4.01 -16 3.02 -16 2 C-15.21625 2.185625 -14.4325 2.37125 -13.625 2.5625 C-8.96066559 3.12543691 -4.64022271 2.59607604 0 2 C0 1.34 0 0.68 0 0 Z " fill="#EDA824" transform="translate(226,238)"/>
<path d="M0 0 C3.3 0.33 6.6 0.66 10 1 C10.33 1.99 10.66 2.98 11 4 C12.65 4.33 14.3 4.66 16 5 C15.34 5.66 14.68 6.32 14 7 C12.68 6.34 11.36 5.68 10 5 C9.67 5.99 9.34 6.98 9 8 C7.0625 7.1875 7.0625 7.1875 5 6 C4.67 5.01 4.34 4.02 4 3 C2.68 2.01 1.36 1.02 0 0 Z " fill="#F2AC27" transform="translate(322,251)"/>
<path d="M0 0 C1.134375 0.020625 2.26875 0.04125 3.4375 0.0625 C0.62099975 3.01623112 -2.29170989 5.45958934 -5.625 7.8125 C-6.91083984 8.73289062 -6.91083984 8.73289062 -8.22265625 9.671875 C-10.5625 11.0625 -10.5625 11.0625 -13.5625 11.0625 C-12.634375 10.340625 -11.70625 9.61875 -10.75 8.875 C-7.96723245 6.57134101 -6.26046778 4.27970212 -4.5625 1.0625 C-3.5625 0.0625 -3.5625 0.0625 0 0 Z " fill="#AFC44E" transform="translate(233.5625,336.9375)"/>
<path d="M0 0 C3.4375 0.8125 3.4375 0.8125 7 2 C7.33 2.99 7.66 3.98 8 5 C7.34 5 6.68 5 6 5 C6 5.66 6 6.32 6 7 C4.35 7 2.7 7 1 7 C1 6.34 1 5.68 1 5 C0.01 5 -0.98 5 -2 5 C-1.125 1.125 -1.125 1.125 0 0 Z " fill="#4CC2ED" transform="translate(300,263)"/>
<path d="M0 0 C0.33 1.32 0.66 2.64 1 4 C0.34 4 -0.32 4 -1 4 C-1 5.65 -1 7.3 -1 9 C-1.99 9.495 -1.99 9.495 -3 10 C-3 8.02 -3 6.04 -3 4 C-3.66 4 -4.32 4 -5 4 C-5 6.31 -5 8.62 -5 11 C-7.31 10.67 -9.62 10.34 -12 10 C-11.38125 9.79375 -10.7625 9.5875 -10.125 9.375 C-7.1699871 7.46293283 -7.04431695 5.27219312 -6 2 C-5.01 1.67 -4.02 1.34 -3 1 C-3 1.66 -3 2.32 -3 3 C-2.01 3 -1.02 3 0 3 C0 2.01 0 1.02 0 0 Z " fill="#EEB23A" transform="translate(395,348)"/>
<path d="M0 0 C6.75479274 -0.7342166 11.18524285 1.72408048 17 5 C17 5.66 17 6.32 17 7 C18.98 7.66 20.96 8.32 23 9 C23 9.99 23 10.98 23 12 C20.625 11.25 20.625 11.25 18 10 C17.71125 9.34 17.4225 8.68 17.125 8 C16.09645156 5.65447673 16.09645156 5.65447673 12.9375 4.9375 C12.32648438 4.79441406 11.71546875 4.65132813 11.0859375 4.50390625 C8.69164282 3.92550922 6.39481257 3.16592619 4.0625 2.375 C3.29035156 2.11460937 2.51820313 1.85421875 1.72265625 1.5859375 C1.15417969 1.39257812 0.58570313 1.19921875 0 1 C0 0.67 0 0.34 0 0 Z " fill="#A7BD43" transform="translate(259,299)"/>
<path d="M0 0 C0.66666667 1.33333333 1.33333333 2.66666667 2 4 C2.391875 4.61875 2.78375 5.2375 3.1875 5.875 C4.31404258 8.82134214 3.68658228 10.97903796 3 14 C2.67 14 2.34 14 2 14 C2 12.02 2 10.04 2 8 C1.34 8 0.68 8 0 8 C-0.33 8.99 -0.66 9.98 -1 11 C-1.66 10.67 -2.32 10.34 -3 10 C-2.814375 8.88625 -2.62875 7.7725 -2.4375 6.625 C-1.68319343 3.17431139 -1.68319343 3.17431139 -3 1 C-2.01 0.67 -1.02 0.34 0 0 Z " fill="#49C7F6" transform="translate(357,317)"/>
<path d="M0 0 C1.20272819 2.40545638 1.10071472 3.94996953 1.0625 6.625 C1.05347656 7.44226563 1.04445313 8.25953125 1.03515625 9.1015625 C1.02355469 9.72804688 1.01195313 10.35453125 1 11 C-0.65 11.33 -2.3 11.66 -4 12 C-4 12.99 -4 13.98 -4 15 C-4.66 15 -5.32 15 -6 15 C-3.10933941 4.44191344 -3.10933941 4.44191344 0 0 Z " fill="#F5AA1C" transform="translate(115,298)"/>
<path d="M0 0 C3.66161578 1.22053859 4.16270474 2.36782304 6.1875 5.5625 C6.71730469 6.38878906 7.24710937 7.21507812 7.79296875 8.06640625 C8.19128906 8.70449219 8.58960938 9.34257812 9 10 C8.67 10.66 8.34 11.32 8 12 C7.34 10.68 6.68 9.36 6 8 C4.02 8.66 2.04 9.32 0 10 C0 7 0 7 1 4 C0.61067144 1.85744207 0.61067144 1.85744207 0 0 Z " fill="#4AC1EF" transform="translate(339,294)"/>
<path d="M0 0 C0.99 0 1.98 0 3 0 C3 0.99 3 1.98 3 3 C2.45730469 3.25394531 1.91460937 3.50789063 1.35546875 3.76953125 C0.64003906 4.11371094 -0.07539063 4.45789063 -0.8125 4.8125 C-1.52019531 5.14894531 -2.22789062 5.48539062 -2.95703125 5.83203125 C-5.05669213 6.9051684 -5.05669213 6.9051684 -6.57421875 8.63671875 C-8 10 -8 10 -11 10 C-9.49616703 5.78926767 -6.79335044 4.16762883 -3 2 C-2.01 2 -1.02 2 0 2 C0 1.34 0 0.68 0 0 Z " fill="#D5BC74" transform="translate(203,255)"/>
<path d="M0 0 C2.35953094 2.35953094 2.49141413 3.77895617 3 7 C3.99 7 4.98 7 6 7 C6 7.66 6 8.32 6 9 C7.32 9.33 8.64 9.66 10 10 C9.360625 10.103125 8.72125 10.20625 8.0625 10.3125 C7.0415625 10.6528125 7.0415625 10.6528125 6 11 C5.67 11.99 5.34 12.98 5 14 C4.67 13.34 4.34 12.68 4 12 C3.34 12 2.68 12 2 12 C0.00214565 7.8794254 -0.17835515 4.54805635 0 0 Z " fill="#F2B745" transform="translate(97,350)"/>
<path d="M0 0 C0.99 0.99 1.98 1.98 3 3 C2.34 3 1.68 3 1 3 C0.67 6.63 0.34 10.26 0 14 C0.66 14 1.32 14 2 14 C2 15.98 2 17.96 2 20 C1.67 19.01 1.34 18.02 1 17 C0.34 17 -0.32 17 -1 17 C-1.33 17.66 -1.66 18.32 -2 19 C-1.8595017 16.2079699 -1.71284617 13.41650204 -1.5625 10.625 C-1.52318359 9.8309375 -1.48386719 9.036875 -1.44335938 8.21875 C-1.11328125 2.2265625 -1.11328125 2.2265625 0 0 Z " fill="#EEA92E" transform="translate(97,332)"/>
<path d="M0 0 C3.96 0.99 3.96 0.99 8 2 C8.33 3.32 8.66 4.64 9 6 C8.34 5.67 7.68 5.34 7 5 C6.01 6.485 6.01 6.485 5 8 C4.34 6.68 3.68 5.36 3 4 C2.34 5.32 1.68 6.64 1 8 C0.01 7.01 -0.98 6.02 -2 5 C-1.34 4.67 -0.68 4.34 0 4 C0 2.68 0 1.36 0 0 Z " fill="#E39DB6" transform="translate(443,340)"/>
<path d="M0 0 C0 0.66 0 1.32 0 2 C-2.22667765 2.67493341 -4.45645977 3.33963044 -6.6875 4 C-8.54955078 4.556875 -8.54955078 4.556875 -10.44921875 5.125 C-13.5010019 5.87703457 -15.88898362 6.19034899 -19 6 C-15.81234216 3.25784615 -13.01059274 2.26642135 -8.9375 1.3125 C-7.89464844 1.06113281 -6.85179687 0.80976563 -5.77734375 0.55078125 C-3 0 -3 0 0 0 Z " fill="#D97290" transform="translate(239,179)"/>
<path d="M0 0 C0.33 0.99 0.66 1.98 1 3 C1.78375 3.28875 2.5675 3.5775 3.375 3.875 C6.72381689 5.31020724 7.64495029 6.65223012 9 10 C8.1875 12.3125 8.1875 12.3125 7 14 C7 13.01 7 12.02 7 11 C6.01 11 5.02 11 4 11 C2.35 7.7 0.7 4.4 -1 1 C-0.67 0.67 -0.34 0.34 0 0 Z " fill="#F6AE2A" transform="translate(359,288)"/>
<path d="M0 0 C0.33 0.66 0.66 1.32 1 2 C0.49210937 2.42410156 -0.01578125 2.84820312 -0.5390625 3.28515625 C-4.05047121 6.27708689 -7.29083283 9.21246456 -10.1875 12.8125 C-12.49672978 15.63418899 -14.38650088 17.04348553 -18 18 C-5.33333333 2.66666667 -5.33333333 2.66666667 0 0 Z " fill="#56C2E4" transform="translate(189,276)"/>
<path d="M0 0 C1.37478516 0.01740234 1.37478516 0.01740234 2.77734375 0.03515625 C3.69644531 0.04417969 4.61554688 0.05320313 5.5625 0.0625 C6.27277344 0.07410156 6.98304688 0.08570313 7.71484375 0.09765625 C7.71484375 0.42765625 7.71484375 0.75765625 7.71484375 1.09765625 C5.40484375 1.09765625 3.09484375 1.09765625 0.71484375 1.09765625 C0.71484375 1.75765625 0.71484375 2.41765625 0.71484375 3.09765625 C2.03484375 3.42765625 3.35484375 3.75765625 4.71484375 4.09765625 C1.71484375 6.09765625 1.71484375 6.09765625 -0.97265625 5.72265625 C-1.73578125 5.51640625 -2.49890625 5.31015625 -3.28515625 5.09765625 C-3.28515625 4.43765625 -3.28515625 3.77765625 -3.28515625 3.09765625 C-4.93515625 2.76765625 -6.58515625 2.43765625 -8.28515625 2.09765625 C-8.28515625 1.76765625 -8.28515625 1.43765625 -8.28515625 1.09765625 C-7.07859375 1.12859375 -7.07859375 1.12859375 -5.84765625 1.16015625 C-2.90762045 1.08844806 -2.83977338 0.12135784 0 0 Z " fill="#F2A921" transform="translate(304.28515625,199.90234375)"/>
<path d="M0 0 C0.66 0 1.32 0 2 0 C1.83242187 0.61488281 1.66484375 1.22976563 1.4921875 1.86328125 C1.28851563 2.67152344 1.08484375 3.47976563 0.875 4.3125 C0.66617188 5.11300781 0.45734375 5.91351563 0.2421875 6.73828125 C-0.27427334 9.28207233 -0.27427334 9.28207233 2 12 C1.34 12 0.68 12 0 12 C0 12.66 0 13.32 0 14 C-0.99 14 -1.98 14 -3 14 C-3 11.36 -3 8.72 -3 6 C-2.34 6 -1.68 6 -1 6 C-1.33 5.01 -1.66 4.02 -2 3 C-1.34 2.01 -0.68 1.02 0 0 Z " fill="#54CCF6" transform="translate(146,353)"/>
<path d="M0 0 C3.19100606 2.12733738 3.76030456 3.05233386 5.25 6.4375 C5.78367187 7.61119141 5.78367187 7.61119141 6.328125 8.80859375 C7 11 7 11 6 14 C6 13.34 6 12.68 6 12 C5.34 12 4.68 12 4 12 C4 11.01 4 10.02 4 9 C1.03 8.505 1.03 8.505 -2 8 C-1.67 7.01 -1.34 6.02 -1 5 C-0.34 5.33 0.32 5.66 1 6 C0.67 4.02 0.34 2.04 0 0 Z " fill="#F7AB29" transform="translate(378,257)"/>
<path d="M0 0 C3.3125 0.125 3.3125 0.125 7 1 C8.75 3.8125 8.75 3.8125 10 7 C10.96534522 8.35863401 11.95277149 9.70343137 13 11 C10.525 10.01 10.525 10.01 8 9 C8 8.34 8 7.68 8 7 C7.360625 6.731875 6.72125 6.46375 6.0625 6.1875 C4 5 4 5 3 2 C2.01 1.67 1.02 1.34 0 1 C0 0.67 0 0.34 0 0 Z " fill="#ABC347" transform="translate(285,346)"/>
<path d="M0 0 C0.33 0.99 0.66 1.98 1 3 C-0.3984375 5.69921875 -0.3984375 5.69921875 -2.375 8.6875 C-3.02210938 9.68136719 -3.66921875 10.67523438 -4.3359375 11.69921875 C-5.15964844 12.83810547 -5.15964844 12.83810547 -6 14 C-6.33 14 -6.66 14 -7 14 C-7.39369876 9.53808067 -6.31581892 6.80455966 -4 3 C-1.8125 1.125 -1.8125 1.125 0 0 Z " fill="#5BCDF0" transform="translate(174,336)"/>
<path d="M0 0 C0.33 0.99 0.66 1.98 1 3 C1.66 3 2.32 3 3 3 C3.33 5.64 3.66 8.28 4 11 C1.5625 10.3125 1.5625 10.3125 -1 9 C-2.16822469 6.04049744 -2.26109611 4.64403708 -1.0625 1.6875 C-0.711875 1.130625 -0.36125 0.57375 0 0 Z " fill="#52C7F2" transform="translate(327,327)"/>
<path d="M0 0 C1.21236328 0.02707031 1.21236328 0.02707031 2.44921875 0.0546875 C3.37154297 0.08949219 3.37154297 0.08949219 4.3125 0.125 C4.3125 0.785 4.3125 1.445 4.3125 2.125 C7.9425 2.125 11.5725 2.125 15.3125 2.125 C15.3125 2.455 15.3125 2.785 15.3125 3.125 C13.35485617 3.31956705 11.39634679 3.50544247 9.4375 3.6875 C8.34695312 3.79191406 7.25640625 3.89632813 6.1328125 4.00390625 C3.3125 4.125 3.3125 4.125 1.3125 3.125 C-0.22418865 2.90032169 -1.76718054 2.71703195 -3.3125 2.5625 C-4.12976563 2.47871094 -4.94703125 2.39492188 -5.7890625 2.30859375 C-6.41554687 2.24800781 -7.04203125 2.18742187 -7.6875 2.125 C-4.48369983 -0.01086678 -3.66810033 -0.10632175 0 0 Z " fill="#A5B953" transform="translate(242.6875,296.875)"/>
<path d="M0 0 C0.99 1.32 1.98 2.64 3 4 C1.68 4.33 0.36 4.66 -1 5 C-1 6.98 -1 8.96 -1 11 C-2.65 11 -4.3 11 -6 11 C-4.34703566 6.90694544 -2.86453858 3.41016497 0 0 Z " fill="#F6AB1F" transform="translate(149,249)"/>
<path d="M0 0 C-0.33 2.31 -0.66 4.62 -1 7 C-2.65 6.67 -4.3 6.34 -6 6 C-6 4.02 -6 2.04 -6 0 C-2.25 -1.125 -2.25 -1.125 0 0 Z " fill="#A4C223" transform="translate(205,365)"/>
<path d="M0 0 C0.33 0 0.66 0 1 0 C1.33 4.62 1.66 9.24 2 14 C0.02 14.99 0.02 14.99 -2 16 C-2.2396943 10.36718401 -1.38529821 5.45461169 0 0 Z " fill="#77CDF1" transform="translate(360,325)"/>
<path d="M0 0 C0.99 0.66 1.98 1.32 3 2 C1.68 4.97 0.36 7.94 -1 11 C-1.66 9.68 -2.32 8.36 -3 7 C-3.66 7.66 -4.32 8.32 -5 9 C-5 7.35 -5 5.7 -5 4 C-4.0409375 3.8453125 -4.0409375 3.8453125 -3.0625 3.6875 C-2.381875 3.460625 -1.70125 3.23375 -1 3 C-0.67 2.01 -0.34 1.02 0 0 Z " fill="#F5A91A" transform="translate(125,328)"/>
<path d="M0 0 C0.99 0.33 1.98 0.66 3 1 C3.36372387 3.24847481 3.71564096 5.49886188 4.0625 7.75 C4.25972656 9.00296875 4.45695312 10.2559375 4.66015625 11.546875 C4.95080818 14.50016589 4.98935727 16.2602414 4 19 C3.34 18.67 2.68 18.34 2 18 C2 12.72 2 7.44 2 2 C1.34 2 0.68 2 0 2 C0 1.34 0 0.68 0 0 Z " fill="#F0A7C2" transform="translate(451,276)"/>
<path d="M0 0 C1.46726798 3.81489674 0.43336419 6.29011622 -1 10 C-2.65 9.67 -4.3 9.34 -6 9 C-4.92598892 6.08482708 -4.22189824 4.22189824 -2 2 C-1.67 2.33 -1.34 2.66 -1 3 C-0.67 2.01 -0.34 1.02 0 0 Z " fill="#F4AC21" transform="translate(104,323)"/>
<path d="M0 0 C1.65 0.99 3.3 1.98 5 3 C4.67 3.99 4.34 4.98 4 6 C3.34 6 2.68 6 2 6 C1.67 6.99 1.34 7.98 1 9 C0.01 8.34 -0.98 7.68 -2 7 C-1.34 4.69 -0.68 2.38 0 0 Z " fill="#AEC74C" transform="translate(192,366)"/>
<path d="M0 0 C1.2065625 0.0309375 1.2065625 0.0309375 2.4375 0.0625 C3.4375 3.0625 3.4375 3.0625 2.5 5.25 C1.9740625 6.1471875 1.9740625 6.1471875 1.4375 7.0625 C-0.5 6.3125 -0.5 6.3125 -2.5625 5.0625 C-3.375 3 -3.375 3 -3.5625 1.0625 C-2.5625 0.0625 -2.5625 0.0625 0 0 Z " fill="#ADC832" transform="translate(290.5625,316.9375)"/>
<path d="M0 0 C0.66 0 1.32 0 2 0 C2.33 0.66 2.66 1.32 3 2 C3.63292969 2.12632812 4.26585937 2.25265625 4.91796875 2.3828125 C7 3 7 3 8.30078125 4.7421875 C8.63464844 5.44601562 8.96851563 6.14984375 9.3125 6.875 C9.83263672 7.92300781 9.83263672 7.92300781 10.36328125 8.9921875 C11 11 11 11 10 14 C9.61328125 13.38511719 9.2265625 12.77023437 8.828125 12.13671875 C8.30734375 11.32847656 7.7865625 10.52023437 7.25 9.6875 C6.73953125 8.88699219 6.2290625 8.08648437 5.703125 7.26171875 C3.99626115 4.99503487 2.25904971 3.67464337 0 2 C0 1.34 0 0.68 0 0 Z " fill="#5DC1E5" transform="translate(316,313)"/>
<path d="M0 0 C3.63 0 7.26 0 11 0 C11 0.33 11 0.66 11 1 C8.03 1 5.06 1 2 1 C2 1.66 2 2.32 2 3 C-5.42857143 5.42857143 -5.42857143 5.42857143 -9 4 C-9 3.34 -9 2.68 -9 2 C-4.545 1.505 -4.545 1.505 0 1 C0 0.67 0 0.34 0 0 Z " fill="#64C3E6" transform="translate(242,283)"/>
<path d="M0 0 C2.0625 0.4375 2.0625 0.4375 4 1 C4.33 2.98 4.66 4.96 5 7 C5.99 7.33 6.98 7.66 8 8 C7.67 8.66 7.34 9.32 7 10 C3.535 8.02 3.535 8.02 0 6 C0 4 0 4 1 3 C0.34 2.34 -0.32 1.68 -1 1 C-0.67 0.67 -0.34 0.34 0 0 Z " fill="#F4B72B" transform="translate(342,265)"/>
<path d="M0 0 C3.16115776 1.36983503 3.9927092 1.9890638 6 5 C8.32481174 6.01965427 10.65794699 7.02059602 13 8 C13.33 8.66 13.66 9.32 14 10 C13.39671875 9.79503906 12.7934375 9.59007812 12.171875 9.37890625 C11.37265625 9.10949219 10.5734375 8.84007812 9.75 8.5625 C8.96109375 8.29566406 8.1721875 8.02882812 7.359375 7.75390625 C5.25178012 7.08045292 3.15246027 6.50849405 1 6 C0.67 4.02 0.34 2.04 0 0 Z " fill="#ED91B3" transform="translate(385,176)"/>
<path d="M0 0 C1.4540625 0.0309375 1.4540625 0.0309375 2.9375 0.0625 C2.15266341 1.54530196 1.35940666 3.0236498 0.5625 4.5 C0.12164062 5.32371094 -0.31921875 6.14742188 -0.7734375 6.99609375 C-2.0625 9.0625 -2.0625 9.0625 -4.0625 10.0625 C-4.0625 8.7425 -4.0625 7.4225 -4.0625 6.0625 C-3.4025 6.0625 -2.7425 6.0625 -2.0625 6.0625 C-2.7225 4.4125 -3.3825 2.7625 -4.0625 1.0625 C-3.0625 0.0625 -3.0625 0.0625 0 0 Z " fill="#F086AC" transform="translate(93.0625,277.9375)"/>
<path d="M0 0 C4.2742558 1.5830577 6.26531794 4.50568404 9 8 C8.34 8 7.68 8 7 8 C6.67 8.66 6.34 9.32 6 10 C4.5 8.625 4.5 8.625 3 7 C3 6.34 3 5.68 3 5 C2.34 4.67 1.68 4.34 1 4 C0.375 1.9375 0.375 1.9375 0 0 Z " fill="#F1B22F" transform="translate(371,247)"/>
<path d="M0 0 C0.66 0 1.32 0 2 0 C1.67 5.28 1.34 10.56 1 16 C0.67 16 0.34 16 0 16 C-0.2165625 14.63875 -0.2165625 14.63875 -0.4375 13.25 C-0.88140925 10.17254866 -0.88140925 10.17254866 -1.6875 8 C-2.15417803 5.01326058 -1.06993265 2.76923745 0 0 Z " fill="#51CDFB" transform="translate(357,325)"/>
<path d="M0 0 C1.65 0 3.3 0 5 0 C5.33 1.32 5.66 2.64 6 4 C5.34 4 4.68 4 4 4 C4 4.66 4 5.32 4 6 C2.68 6 1.36 6 0 6 C0 4.02 0 2.04 0 0 Z " fill="#E8B84D" transform="translate(399,359)"/>
<path d="M0 0 C0.66 1.32 1.32 2.64 2 4 C3.32 3.67 4.64 3.34 6 3 C5.67 4.32 5.34 5.64 5 7 C3.68 6.67 2.36 6.34 1 6 C1 6.66 1 7.32 1 8 C-0.32 8.33 -1.64 8.66 -3 9 C-2.67 8.01 -2.34 7.02 -2 6 C-1.34 6 -0.68 6 0 6 C0 4.02 0 2.04 0 0 Z " fill="#5FCAF1" transform="translate(353,347)"/>
<path d="M0 0 C0.75 1.625 0.75 1.625 1 4 C-0.9375 7.25 -0.9375 7.25 -3 10 C-3.99 9.67 -4.98 9.34 -6 9 C-4.47291037 5.56404834 -2.40072955 2.88087546 0 0 Z " fill="#F3AC2C" transform="translate(122,289)"/>
<path d="M0 0 C0.66 0.33 1.32 0.66 2 1 C0.85821872 2.66944521 -0.28852905 4.3354948 -1.4375 6 C-2.07558594 6.928125 -2.71367187 7.85625 -3.37109375 8.8125 C-3.90863281 9.534375 -4.44617188 10.25625 -5 11 C-5.33 11 -5.66 11 -6 11 C-6 9.35 -6 7.7 -6 6 C-5.34 5.67 -4.68 5.34 -4 5 C-3.67 4.01 -3.34 3.02 -3 2 C-2.01 1.34 -1.02 0.68 0 0 Z " fill="#51C5E7" transform="translate(190,314)"/>
<path d="M0 0 C0.66 0 1.32 0 2 0 C2 0.99 2 1.98 2 3 C2.66 3 3.32 3 4 3 C4.53251766 4.91345327 5.05059483 6.8309295 5.5625 8.75 C5.85253906 9.81734375 6.14257812 10.8846875 6.44140625 11.984375 C6.97098494 14.84335927 6.98370862 16.31597383 6 19 C5.73445313 18.13117188 5.46890625 17.26234375 5.1953125 16.3671875 C4.84210938 15.21476562 4.48890625 14.06234375 4.125 12.875 C3.77695312 11.73804688 3.42890625 10.60109375 3.0703125 9.4296875 C2.08503467 6.27248336 1.05727464 3.13372394 0 0 Z " fill="#EAB143" transform="translate(364,299)"/>
<path d="M0 0 C0.99 0.33 1.98 0.66 3 1 C3 7.27 3 13.54 3 20 C2.67 20 2.34 20 2 20 C1.34 13.4 0.68 6.8 0 0 Z " fill="#F895B9" transform="translate(453,294)"/>
<path d="M0 0 C0.66 0.66 1.32 1.32 2 2 C0.63055898 4.94956528 -0.87830409 7.52468811 -3 10 C-3.66 10 -4.32 10 -5 10 C-5 10.99 -5 11.98 -5 13 C-5.66 12.67 -6.32 12.34 -7 12 C-6.20994338 10.56161448 -5.41788955 9.12432585 -4.625 7.6875 C-4.18414062 6.88699219 -3.74328125 6.08648437 -3.2890625 5.26171875 C-2.26486665 3.46472057 -1.14732862 1.72099292 0 0 Z " fill="#A4BB49" transform="translate(199,332)"/>
<path d="M0 0 C0.66 0 1.32 0 2 0 C1.67 0.99 1.34 1.98 1 3 C-1.0625 3.6875 -1.0625 3.6875 -3 4 C-3.103125 4.598125 -3.20625 5.19625 -3.3125 5.8125 C-4.08876455 8.28243264 -5.07088921 9.32251235 -7 11 C-7 7 -7 7 -4.625 4.25 C-2 2 -2 2 0 2 C0 1.34 0 0.68 0 0 Z " fill="#A9BD4A" transform="translate(216,311)"/>
<path d="M0 0 C0 3 0 3 -1.4375 4.5 C-1.953125 4.995 -2.46875 5.49 -3 6 C-3.33 6.99 -3.66 7.98 -4 9 C-5.65 9 -7.3 9 -9 9 C-7.53471687 5.13698083 -5.55307561 3.95419158 -2 2 C-1.34 1.34 -0.68 0.68 0 0 Z " fill="#48C3F3" transform="translate(200,268)"/>
<path d="M0 0 C2 1 2 1 3.0859375 3.16796875 C4.08968317 6.27786451 4.41024596 9.05539698 4.625 12.3125 C4.69976562 13.38113281 4.77453125 14.44976562 4.8515625 15.55078125 C4.90054687 16.35902344 4.94953125 17.16726563 5 18 C3.31099986 14.89370844 2.29373333 11.84794949 1.375 8.4375 C1.11460937 7.48746094 0.85421875 6.53742188 0.5859375 5.55859375 C0 3 0 3 0 0 Z " fill="#EB8AAB" transform="translate(409,272)"/>
<path d="M0 0 C0 3 0 3 -1 5 C-1.66 5 -2.32 5 -3 5 C-3.33 6.32 -3.66 7.64 -4 9 C-4.66 9 -5.32 9 -6 9 C-6.375 6.75 -6.375 6.75 -6 4 C-3 1.6875 -3 1.6875 0 0 Z " fill="#F2B73C" transform="translate(179,262)"/>
<path d="M0 0 C1.4540625 0.0309375 1.4540625 0.0309375 2.9375 0.0625 C0.68152173 2.31847827 -1.10853867 3.02824192 -4.0625 4.1875 C-4.949375 4.54070312 -5.83625 4.89390625 -6.75 5.2578125 C-9.0625 6.0625 -9.0625 6.0625 -11.0625 6.0625 C-10.7325 5.0725 -10.4025 4.0825 -10.0625 3.0625 C-7.0625 1.9375 -7.0625 1.9375 -4.0625 1.0625 C-3.0625 0.0625 -3.0625 0.0625 0 0 Z " fill="#EE95B3" transform="translate(208.0625,176.9375)"/>
<path d="M0 0 C1.9375 0.375 1.9375 0.375 4 1 C5.60725635 4.21451269 5.05748185 7.43612536 5 11 C4.731875 10.4225 4.46375 9.845 4.1875 9.25 C3.05815166 6.94603902 3.05815166 6.94603902 1.375 4.9375 C0 3 0 3 0 0 Z " fill="#ACC663" transform="translate(323,344)"/>
<path d="M0 0 C2.97 0.495 2.97 0.495 6 1 C3.51047079 3.66735273 1.36591866 5.55746343 -2 7 C-2 5.35 -2 3.7 -2 2 C-1.34 2 -0.68 2 0 2 C0 1.34 0 0.68 0 0 Z " fill="#4FC1ED" transform="translate(205,298)"/>
<path d="M0 0 C1.0725 0.2475 2.145 0.495 3.25 0.75 C1.93 1.08 0.61 1.41 -0.75 1.75 C-0.75 2.41 -0.75 3.07 -0.75 3.75 C-2.4 4.08 -4.05 4.41 -5.75 4.75 C-5.75 5.41 -5.75 6.07 -5.75 6.75 C-6.41 6.75 -7.07 6.75 -7.75 6.75 C-7.75 3.75 -7.75 3.75 -6.1875 1.5 C-3.75 -0.25 -3.75 -0.25 0 0 Z " fill="#4DC3F4" transform="translate(233.75,283.25)"/>
<path d="M0 0 C3.24299151 2.38957269 5.50902342 4.2047869 7 8 C5.02 8.33 3.04 8.66 1 9 C0.67 6.03 0.34 3.06 0 0 Z " fill="#F087AB" transform="translate(400,188)"/>
<path d="M0 0 C2.50037734 2.17424117 3.43628586 3.73045798 4 7 C4.99 7 5.98 7 7 7 C6.67 7.99 6.34 8.98 6 10 C5.34 10 4.68 10 4 10 C3.01 10.495 3.01 10.495 2 11 C1.67 9.35 1.34 7.7 1 6 C0.67 6 0.34 6 0 6 C0 4.02 0 2.04 0 0 Z " fill="#EB94B6" transform="translate(51,336)"/>
<path d="M0 0 C0.66 0 1.32 0 2 0 C2 2.31 2 4.62 2 7 C-0.97 6.67 -3.94 6.34 -7 6 C-7 5.67 -7 5.34 -7 5 C-5.824375 4.87625 -5.824375 4.87625 -4.625 4.75 C-1.85250896 4.27193661 -1.85250896 4.27193661 -0.6875 1.9375 C-0.460625 1.298125 -0.23375 0.65875 0 0 Z " fill="#A9C04C" transform="translate(225,305)"/>
<path d="M0 0 C0 3 0 3 -2 6 C-2.39013716 7.9896995 -2.73202649 9.99019869 -3 12 C-3.66 12 -4.32 12 -5 12 C-5.35338623 9.03155565 -5.5417682 6.84401782 -3.88671875 4.265625 C-2.64496832 2.79651181 -1.32662082 1.39295186 0 0 Z " fill="#5DC2E8" transform="translate(170,294)"/>
<path d="M0 0 C1.75 1.5625 1.75 1.5625 3 3 C-3.4 3.36923077 -3.4 3.36923077 -6.4375 1.5 C-6.953125 1.005 -7.46875 0.51 -8 0 C-4.95904675 -0.97744926 -3.00367313 -1.16271218 0 0 Z " fill="#60CCF1" transform="translate(290,258)"/>
<path d="M0 0 C1.62580966 0.11398665 3.25067157 0.24155659 4.875 0.375 C5.77992188 0.44460937 6.68484375 0.51421875 7.6171875 0.5859375 C10 1 10 1 12 3 C9.9375 4.25 9.9375 4.25 7 5 C4.39093631 3.95421827 2.36033529 2.57355686 0 1 C0 0.67 0 0.34 0 0 Z " fill="#52BFED" transform="translate(259,250)"/>
<path d="M0 0 C0 0.66 0 1.32 0 2 C4.455 1.505 4.455 1.505 9 1 C5.96474514 3.02350324 4.80573798 3.32124018 1.3125 3.625 C0.50425781 3.69976562 -0.30398437 3.77453125 -1.13671875 3.8515625 C-1.75160156 3.90054688 -2.36648437 3.94953125 -3 4 C-3.33 3.01 -3.66 2.02 -4 1 C-2 0 -2 0 0 0 Z " fill="#ECA72E" transform="translate(246,232)"/>
<path d="M0 0 C4.75 1.875 4.75 1.875 7 3 C7.66 2.34 8.32 1.68 9 1 C9 1.66 9 2.32 9 3 C10.32 3.33 11.64 3.66 13 4 C9.97545382 4.65273326 7.09973249 5.1493847 4 5 C1.4375 2.5625 1.4375 2.5625 0 0 Z " fill="#A6C038" transform="translate(301,362)"/>
<path d="M0 0 C4.67692308 1.47692308 4.67692308 1.47692308 6.3125 4.125 C6.539375 4.74375 6.76625 5.3625 7 6 C5.68 5.34 4.36 4.68 3 4 C2.67 5.65 2.34 7.3 2 9 C1.34 8.01 0.68 7.02 0 6 C0.4375 3.9375 0.4375 3.9375 1 2 C0.67 1.34 0.34 0.68 0 0 Z " fill="#A3BC31" transform="translate(292,314)"/>
<path d="M0 0 C2.93200474 2.85276137 5.64315404 5.65079784 8 9 C5.03 8.505 5.03 8.505 2 8 C1.34 5.36 0.68 2.72 0 0 Z " fill="#EEA924" transform="translate(363,238)"/>
<path d="M0 0 C0.99 0.33 1.98 0.66 3 1 C3 1.99 3 2.98 3 4 C3.99 4 4.98 4 6 4 C6.33 3.34 6.66 2.68 7 2 C7 2.99 7 3.98 7 5 C4 5 1 5 -2 5 C-1.34 3.35 -0.68 1.7 0 0 Z " fill="#69C6E5" transform="translate(340,356)"/>
<path d="M0 0 C4.75 1.875 4.75 1.875 7 3 C6.67 3.66 6.34 4.32 6 5 C4.68 5 3.36 5 2 5 C1.34 4.34 0.68 3.68 0 3 C0 2.01 0 1.02 0 0 Z " fill="#AAC731" transform="translate(309,337)"/>
<path d="M0 0 C0.99 0.33 1.98 0.66 3 1 C3 2.32 3 3.64 3 5 C2.34 5 1.68 5 1 5 C1 5.66 1 6.32 1 7 C0.34 7 -0.32 7 -1 7 C-1.66 5.35 -2.32 3.7 -3 2 C-2.01 1.34 -1.02 0.68 0 0 Z " fill="#F68EAE" transform="translate(450,335)"/>
<path d="M0 0 C4.05281712 1.22527029 7.44360764 2.69880494 11 5 C10.67 5.66 10.34 6.32 10 7 C8.125 6.75 8.125 6.75 6 6 C4.75 3.9375 4.75 3.9375 4 2 C2.68 2 1.36 2 0 2 C0 1.34 0 0.68 0 0 Z " fill="#F1AB2E" transform="translate(352,231)"/>
<path d="M0 0 C0 3.19219704 -0.23605791 4.39608549 -2 7 C-4.625 8.25 -4.625 8.25 -7 9 C-5.64978174 4.58110387 -3.73884332 2.65654657 0 0 Z " fill="#F193B5" transform="translate(109,197)"/>
<path d="M0 0 C0.33 1.32 0.66 2.64 1 4 C0.4225 4.2475 -0.155 4.495 -0.75 4.75 C-3.3002997 6.16683317 -5.01785701 7.87627537 -7 10 C-7.66 9.67 -8.32 9.34 -9 9 C-6.03 6.03 -3.06 3.06 0 0 Z " fill="#E58BAB" transform="translate(132,175)"/>
<path d="M0 0 C2.0625 0.4375 2.0625 0.4375 4 1 C4.33 2.65 4.66 4.3 5 6 C3.35 6 1.7 6 0 6 C-0.38218767 4.34385343 -0.71395102 2.67542976 -1 1 C-0.67 0.67 -0.34 0.34 0 0 Z " fill="#F0AF38" transform="translate(377,352)"/>
<path d="M0 0 C1.21386936 3.64160808 0.6674695 4.33165469 -0.9375 7.6875 C-1.31777344 8.49574219 -1.69804688 9.30398438 -2.08984375 10.13671875 C-2.39019531 10.75160156 -2.69054687 11.36648438 -3 12 C-3.66 11.67 -4.32 11.34 -5 11 C-4.35731563 9.35293447 -3.71076198 7.70737825 -3.0625 6.0625 C-2.70285156 5.14597656 -2.34320313 4.22945313 -1.97265625 3.28515625 C-1 1 -1 1 0 0 Z " fill="#E0C964" transform="translate(127,347)"/>
<path d="M0 0 C4.875 2.75 4.875 2.75 6 5 C4.34385343 5.38218767 2.67542976 5.71395102 1 6 C0 5 0 5 -0.0625 2.4375 C-0.041875 1.633125 -0.02125 0.82875 0 0 Z " fill="#4BC1EF" transform="translate(313,271)"/>
<path d="M0 0 C0.99 0.495 0.99 0.495 2 1 C2.6328125 3.28515625 2.6328125 3.28515625 3.125 6.0625 C3.29257812 6.98160156 3.46015625 7.90070313 3.6328125 8.84765625 C3.75398438 9.55792969 3.87515625 10.26820313 4 11 C3.01 11 2.02 11 1 11 C0.30710631 7.27569643 -0.11144596 3.78916254 0 0 Z " fill="#F4A2BF" transform="translate(443,247)"/>
<path d="M0 0 C0.66 0.33 1.32 0.66 2 1 C1.05016642 2.50539661 0.08988109 4.00420347 -0.875 5.5 C-1.40867187 6.3353125 -1.94234375 7.170625 -2.4921875 8.03125 C-2.98976563 8.6809375 -3.48734375 9.330625 -4 10 C-4.66 10 -5.32 10 -6 10 C-4.6302836 6.00499382 -2.74277578 3.19990508 0 0 Z " fill="#ED90B1" transform="translate(90,216)"/>
<path d="M0 0 C-8.14537445 5.49339207 -8.14537445 5.49339207 -11 7 C-11.66 6.67 -12.32 6.34 -13 6 C-12.34 5.34 -11.68 4.68 -11 4 C-10.01 4 -9.02 4 -8 4 C-7.67 3.01 -7.34 2.02 -7 1 C-2.55696203 -1.27848101 -2.55696203 -1.27848101 0 0 Z " fill="#F1AB20" transform="translate(217,200)"/>
<path d="M0 0 C2.00720923 0.28674418 4.0085944 0.61866701 6 1 C5 4 5 4 2.9375 5.1875 C2.298125 5.455625 1.65875 5.72375 1 6 C0.34 4.35 -0.32 2.7 -1 1 C-0.67 0.67 -0.34 0.34 0 0 Z " fill="#ACC154" transform="translate(318,363)"/>
<path d="M0 0 C1.32 0 2.64 0 4 0 C4.93065133 2.60582371 5.14917407 3.64198224 4.0625 6.25 C3.5365625 7.11625 3.5365625 7.11625 3 8 C1.58622659 5.36095629 0.62759865 2.92879371 0 0 Z " fill="#EA8DAE" transform="translate(62,349)"/>
<path d="M0 0 C0.33 1.32 0.66 2.64 1 4 C-0.65 3.67 -2.3 3.34 -4 3 C-4 3.99 -4 4.98 -4 6 C-4.66 6 -5.32 6 -6 6 C-5.67 4.35 -5.34 2.7 -5 1 C-2 0 -2 0 0 0 Z " fill="#A3BB44" transform="translate(191,348)"/>
<path d="M0 0 C2.475 0.99 2.475 0.99 5 2 C5 2.99 5 3.98 5 5 C3.35 5 1.7 5 0 5 C-0.33 4.01 -0.66 3.02 -1 2 C-0.67 1.34 -0.34 0.68 0 0 Z " fill="#FFA90F" transform="translate(330,245)"/>
<path d="M0 0 C0.99 0.33 1.98 0.66 3 1 C3.33 1.99 3.66 2.98 4 4 C2.35 4.33 0.7 4.66 -1 5 C-1.33 3.68 -1.66 2.36 -2 1 C-1.34 0.67 -0.68 0.34 0 0 Z " fill="#FDAB18" transform="translate(360,237)"/>
<path d="M0 0 C2.79828356 0.38597015 3.8205884 0.80136573 5.75 2.9375 C7 5 7 5 7 7 C4.13302508 5.71480435 2.02392288 4.42870746 0 2 C0 1.34 0 0.68 0 0 Z " fill="#D87096" transform="translate(366,226)"/>
<path d="M0 0 C2.03833424 1.2739589 4.03852126 2.61061923 6 4 C6 4.66 6 5.32 6 6 C3.625 5.75 3.625 5.75 1 5 C-0.3125 2.9375 -0.3125 2.9375 -1 1 C-0.67 0.67 -0.34 0.34 0 0 Z " fill="#EEAD31" transform="translate(345,222)"/>
<path d="M0 0 C1.81495662 0.44850658 3.62693134 0.90909571 5.4375 1.375 C6.44683594 1.63023437 7.45617187 1.88546875 8.49609375 2.1484375 C11 3 11 3 12 5 C6.06 4.01 6.06 4.01 0 3 C0 2.01 0 1.02 0 0 Z " fill="#EFAB39" transform="translate(283,195)"/>
<path d="M0 0 C0 0.99 0 1.98 0 3 C-1.0725 3.45375 -2.145 3.9075 -3.25 4.375 C-5.88062317 5.50088537 -8.46000396 6.67920206 -11 8 C-8.21659292 4.18570141 -5.12174212 0 0 0 Z " fill="#E990AE" transform="translate(144,167)"/>
<path d="M0 0 C0.66 0.99 1.32 1.98 2 3 C1.125 5.6875 1.125 5.6875 0 8 C0.66 8.33 1.32 8.66 2 9 C0.02 9.99 0.02 9.99 -2 11 C-1.34 7.37 -0.68 3.74 0 0 Z " fill="#ADC354" transform="translate(189,357)"/>
<path d="M0 0 C0.66 0 1.32 0 2 0 C1.38461538 5.53846154 1.38461538 5.53846154 -0.5625 7.875 C-1.036875 8.24625 -1.51125 8.6175 -2 9 C-1.125 1.125 -1.125 1.125 0 0 Z " fill="#DF8BAF" transform="translate(47,332)"/>
<path d="M0 0 C0.66 0 1.32 0 2 0 C2 0.66 2 1.32 2 2 C2.99 2.33 3.98 2.66 5 3 C4.67 3.99 4.34 4.98 4 6 C1 5 1 5 -1 4 C-0.67 2.68 -0.34 1.36 0 0 Z " fill="#FCA3C6" transform="translate(48,328)"/>
<path d="M0 0 C0.66 0.33 1.32 0.66 2 1 C2 1.99 2 2.98 2 4 C-0.64 4.99 -3.28 5.98 -6 7 C-6 6.34 -6 5.68 -6 5 C-4.69855198 3.95884159 -3.36161311 2.96113866 -2 2 C-1.34 1.34 -0.68 0.68 0 0 Z " fill="#ABC04F" transform="translate(208,322)"/>
<path d="M0 0 C-0.33 1.32 -0.66 2.64 -1 4 C-2.9375 3.6875 -2.9375 3.6875 -5 3 C-5.33 2.01 -5.66 1.02 -6 0 C-3 -1 -3 -1 0 0 Z " fill="#D4848F" transform="translate(409,298)"/>
<path d="M0 0 C1.258125 -0.04125 2.51625 -0.0825 3.8125 -0.125 C4.52019531 -0.14820313 5.22789062 -0.17140625 5.95703125 -0.1953125 C8 0 8 0 11 2 C7.04 2 3.08 2 -1 2 C-0.67 1.34 -0.34 0.68 0 0 Z " fill="#C28857" transform="translate(255,188)"/>
<path d="M0 0 C1.125 3.75 1.125 3.75 0 6 C-1.65 6 -3.3 6 -5 6 C-5 5.01 -5 4.02 -5 3 C-2.5 1.3125 -2.5 1.3125 0 0 Z " fill="#F598B8" transform="translate(182,137)"/>
<path d="M0 0 C1.65 0 3.3 0 5 0 C4.67 1.65 4.34 3.3 4 5 C3.34 4.34 2.68 3.68 2 3 C1.01 3 0.02 3 -1 3 C-0.67 2.01 -0.34 1.02 0 0 Z " fill="#A3BD37" transform="translate(190,362)"/>
<path d="M0 0 C0.33 0.99 0.66 1.98 1 3 C1.99 3.33 2.98 3.66 4 4 C4 4.66 4 5.32 4 6 C3.34 6 2.68 6 2 6 C2 6.66 2 7.32 2 8 C0.68 7.67 -0.64 7.34 -2 7 C-1.01 7 -0.02 7 1 7 C0.4740625 5.824375 0.4740625 5.824375 -0.0625 4.625 C-0.371875 3.75875 -0.68125 2.8925 -1 2 C-0.67 1.34 -0.34 0.68 0 0 Z " fill="#A7BF55" transform="translate(326,356)"/>
<path d="M0 0 C0.99 0.33 1.98 0.66 3 1 C2.34 3.31 1.68 5.62 1 8 C0.01 7.01 -0.98 6.02 -2 5 C-1.34 4.67 -0.68 4.34 0 4 C0 2.68 0 1.36 0 0 Z " fill="#F69FB7" transform="translate(443,340)"/>
<path d="M0 0 C0.33 0.66 0.66 1.32 1 2 C1.66 2 2.32 2 3 2 C3 2.66 3 3.32 3 4 C1.02 4.66 -0.96 5.32 -3 6 C-2.625 3.5625 -2.625 3.5625 -2 1 C-1.34 0.67 -0.68 0.34 0 0 Z " fill="#FDACCB" transform="translate(53,290)"/>
<path d="M0 0 C3 2 3 2 3.6875 4.625 C3.790625 5.40875 3.89375 6.1925 4 7 C2.02 7 0.04 7 -2 7 C-1.67 6.34 -1.34 5.68 -1 5 C-0.34 5.33 0.32 5.66 1 6 C0.67 4.02 0.34 2.04 0 0 Z " fill="#EAAC33" transform="translate(378,257)"/>
<path d="M0 0 C0 1.98 0 3.96 0 6 C-0.66 5.67 -1.32 5.34 -2 5 C-2 4.34 -2 3.68 -2 3 C-3.65 3 -5.3 3 -7 3 C-7 2.34 -7 1.68 -7 1 C-2.25 0 -2.25 0 0 0 Z " fill="#54C1F0" transform="translate(251,250)"/>
<path d="M0 0 C0.66 0.33 1.32 0.66 2 1 C0.9024777 3.99324263 0.32317108 4.84610901 -2.625 6.25 C-3.40875 6.4975 -4.1925 6.745 -5 7 C-2.25 1.125 -2.25 1.125 0 0 Z " fill="#FBC124" transform="translate(170,226)"/>
<path d="M0 0 C3 4 3 4 2.6875 7.25 C2.460625 8.1575 2.23375 9.065 2 10 C1.34 10 0.68 10 0 10 C0 6.7 0 3.4 0 0 Z " fill="#A8BD47" transform="translate(184,354)"/>
<path d="M0 0 C0.33 1.32 0.66 2.64 1 4 C-0.65 4 -2.3 4 -4 4 C-4.33 3.01 -4.66 2.02 -5 1 C-3.35 0.67 -1.7 0.34 0 0 Z " fill="#F9AC1C" transform="translate(386,353)"/>
<path d="M0 0 C2.0625 0.4375 2.0625 0.4375 4 1 C2.68 2.65 1.36 4.3 0 6 C-0.38218767 4.34385343 -0.71395102 2.67542976 -1 1 C-0.67 0.67 -0.34 0.34 0 0 Z " fill="#45C7F4" transform="translate(163,351)"/>
<path d="M0 0 C0.33 0 0.66 0 1 0 C1 2.31 1 4.62 1 7 C-0.98 7.99 -0.98 7.99 -3 9 C-3 7.68 -3 6.36 -3 5 C-2.34 5 -1.68 5 -1 5 C-0.67 3.35 -0.34 1.7 0 0 Z " fill="#F289AF" transform="translate(45,316)"/>
<path d="M0 0 C3.73639216 1.24546405 4.18756513 2.63404953 6 6 C4.35 6.33 2.7 6.66 1 7 C0.67 4.69 0.34 2.38 0 0 Z " fill="#53CCF4" transform="translate(339,294)"/>
<path d="M0 0 C0 1.65 0 3.3 0 5 C-0.99 5.33 -1.98 5.66 -3 6 C-3.66 4.35 -4.32 2.7 -5 1 C-3 0 -3 0 0 0 Z " fill="#FC9DBE" transform="translate(54,295)"/>
<path d="M0 0 C3 2 3 2 3.6875 4.625 C3.790625 5.40875 3.89375 6.1925 4 7 C3.34 7 2.68 7 2 7 C0.61767557 5.37373596 -0.71937515 3.7074998 -2 2 C-1.34 1.34 -0.68 0.68 0 0 Z " fill="#EEA923" transform="translate(303,232)"/>
<path d="M0 0 C1.35432675 1.31200404 2.68733482 2.64631404 4 4 C4 4.33 4 4.66 4 5 C2.35 5 0.7 5 -1 5 C-1.33 4.01 -1.66 3.02 -2 2 C-1.34 2 -0.68 2 0 2 C0 1.34 0 0.68 0 0 Z " fill="#FEA517" transform="translate(311,233)"/>
<path d="M0 0 C1.7074998 1.28062485 3.37373596 2.61767557 5 4 C5 4.66 5 5.32 5 6 C3.35 5.67 1.7 5.34 0 5 C0 3.35 0 1.7 0 0 Z " fill="#A7BF49" transform="translate(199,366)"/>
<path d="M0 0 C0.66 0 1.32 0 2 0 C1.125 4.75 1.125 4.75 0 7 C-0.66 7 -1.32 7 -2 7 C-2.33 6.01 -2.66 5.02 -3 4 C-2.01 3.67 -1.02 3.34 0 3 C0 2.01 0 1.02 0 0 Z " fill="#4CC2EA" transform="translate(161,358)"/>
<path d="M0 0 C1.10191901 4.40767604 0.58706842 5.8922935 -1 10 C-1.66 10 -2.32 10 -3 10 C-2.01 6.7 -1.02 3.4 0 0 Z " fill="#56BEE7" transform="translate(147,326)"/>
<path d="M0 0 C0 0.66 0 1.32 0 2 C0.66 2.33 1.32 2.66 2 3 C-4.75 2.25 -4.75 2.25 -7 0 C-2.25 -1.125 -2.25 -1.125 0 0 Z " fill="#50C6EA" transform="translate(283,289)"/>
<path d="M0 0 C0.66 0 1.32 0 2 0 C2.33 0.66 2.66 1.32 3 2 C3.99 2.33 4.98 2.66 6 3 C6 3.66 6 4.32 6 5 C4.35 5 2.7 5 1 5 C0.67 3.35 0.34 1.7 0 0 Z " fill="#31B3DD" transform="translate(300,265)"/>
<path d="M0 0 C0 0.66 0 1.32 0 2 C-0.66 2 -1.32 2 -2 2 C-1.67 2.99 -1.34 3.98 -1 5 C-2.98 5 -4.96 5 -7 5 C-2.25 0 -2.25 0 0 0 Z " fill="#F4B319" transform="translate(183,217)"/>
<path d="M0 0 C0 0.66 0 1.32 0 2 C-2.70879335 3.35439668 -5.00933268 3.06501451 -8 3 C-8 2.34 -8 1.68 -8 1 C-5.23735711 0.40267181 -2.83967231 0 0 0 Z " fill="#DD7C9E" transform="translate(239,179)"/>
<path d="M0 0 C0.66 0 1.32 0 2 0 C2 0.66 2 1.32 2 2 C2.66 2.33 3.32 2.66 4 3 C1.625 3.625 1.625 3.625 -1 4 C-1.66 3.34 -2.32 2.68 -3 2 C-2.01 2 -1.02 2 0 2 C0 1.34 0 0.68 0 0 Z " fill="#AEDDE5" transform="translate(255,288)"/>
<path d="M0 0 C2 2 2 2 2.125 5.125 C2.08375 6.07375 2.0425 7.0225 2 8 C-0.1519437 4.77208445 -0.20086443 3.71599191 0 0 Z " fill="#DEB270" transform="translate(404,339)"/>
<path d="M0 0 C1.5625 1.25 1.5625 1.25 3 3 C2.6875 5.1875 2.6875 5.1875 2 7 C1.34 4.69 0.68 2.38 0 0 Z " fill="#D2AD78" transform="translate(394,284)"/>
<path d="M0 0 C0.33 0.66 0.66 1.32 1 2 C0.67 2.66 0.34 3.32 0 4 C-0.99 3.67 -1.98 3.34 -3 3 C-2.01 2.01 -1.02 1.02 0 0 Z " fill="#DEA5A5" transform="translate(125,255)"/>
<path d="M0 0 C0.66 0 1.32 0 2 0 C2 1.32 2 2.64 2 4 C1.34 4 0.68 4 0 4 C0 2.68 0 1.36 0 0 Z " fill="#99D3D7" transform="translate(354,362)"/>
<path d="M0 0 C0.66 0.66 1.32 1.32 2 2 C0.02 2.99 0.02 2.99 -2 4 C-1.34 2.68 -0.68 1.36 0 0 Z " fill="#C49195" transform="translate(117,263)"/>
<path d="M0 0 C1.32 0.33 2.64 0.66 4 1 C4 1.66 4 2.32 4 3 C2.68 2.67 1.36 2.34 0 2 C0 1.34 0 0.68 0 0 Z " fill="#D3955B" transform="translate(335,202)"/>
<path d="M0 0 C0.33 0.66 0.66 1.32 1 2 C-0.65 2.33 -2.3 2.66 -4 3 C-3 1 -3 1 0 0 Z " fill="#CD9585" transform="translate(211,186)"/>
<path d="M0 0 C0.33 1.32 0.66 2.64 1 4 C0.34 4 -0.32 4 -1 4 C-0.67 2.68 -0.34 1.36 0 0 Z " fill="#D6C582" transform="translate(109,367)"/>
<path d="M0 0 C0.66 0 1.32 0 2 0 C1.67 0.99 1.34 1.98 1 3 C0.67 2.01 0.34 1.02 0 0 Z " fill="#B0C367" transform="translate(198,372)"/>
<path d="M0 0 C0.99 0.495 0.99 0.495 2 1 C2 1.66 2 2.32 2 3 C1.34 3 0.68 3 0 3 C0 2.01 0 1.02 0 0 Z " fill="#B5D4B9" transform="translate(361,360)"/>
<path d="M0 0 C0 0.99 0 1.98 0 3 C-0.66 2.67 -1.32 2.34 -2 2 C-1.34 1.34 -0.68 0.68 0 0 Z " fill="#A1BA6B" transform="translate(216,353)"/>
<path d="M0 0 C0.66 0 1.32 0 2 0 C2 0.66 2 1.32 2 2 C1.01 1.67 0.02 1.34 -1 1 C-0.67 0.67 -0.34 0.34 0 0 Z " fill="#D69D7F" transform="translate(169,213)"/>
<path d="M0 0 C0.99 0.33 1.98 0.66 3 1 C2.01 1 1.02 1 0 1 C0 0.67 0 0.34 0 0 Z " fill="#A9B46C" transform="translate(297,359)"/>
<path d="M0 0 C0.66 0 1.32 0 2 0 C2 0.66 2 1.32 2 2 C1.34 2 0.68 2 0 2 C0 1.34 0 0.68 0 0 Z " fill="#ACAB8E" transform="translate(187,267)"/>
<path d="M0 0 C0.99 0.495 0.99 0.495 2 1 C1.67 1.66 1.34 2.32 1 3 C0.67 2.01 0.34 1.02 0 0 Z " fill="#CDA76E" transform="translate(385,261)"/>
<path d="M0 0 C0.66 0 1.32 0 2 0 C1.67 0.66 1.34 1.32 1 2 C0.67 1.34 0.34 0.68 0 0 Z " fill="#DABF88" transform="translate(396,366)"/>
<path d="M0 0 C0.99 0.495 0.99 0.495 2 1 C1.01 1.495 1.01 1.495 0 2 C0 1.34 0 0.68 0 0 Z " fill="#B3B2A0" transform="translate(136,328)"/>
<path d="M0 0 C0.33 0.66 0.66 1.32 1 2 C0.34 1.67 -0.32 1.34 -1 1 C-0.67 0.67 -0.34 0.34 0 0 Z " fill="#ADA7A0" transform="translate(216,249)"/>
<path d="M0 0 C0.66 0 1.32 0 2 0 C1.67 0.66 1.34 1.32 1 2 C0.67 1.34 0.34 0.68 0 0 Z " fill="#DCB763" transform="translate(304,242)"/>
<path d="" fill="#CC91AD" transform="translate(0,0)"/>
<path d="M0 0 C2 1 2 1 2 1 Z " fill="#C9B17B" transform="translate(298,238)"/>
<path d="" fill="#FFFFFF" transform="translate(0,0)"/>
<path d="" fill="#FFFFFF" transform="translate(0,0)"/>
<path d="" fill="#FFFFFF" transform="translate(0,0)"/>
<path d="" fill="#FFFFFF" transform="translate(0,0)"/>
<path d="" fill="#FFFFFF" transform="translate(0,0)"/>
<path d="" fill="#FFFFFF" transform="translate(0,0)"/>
<path d="" fill="#FFFFFF" transform="translate(0,0)"/>
<path d="" fill="#FFFFFF" transform="translate(0,0)"/>
<path d="" fill="#FFFFFF" transform="translate(0,0)"/>
<path d="" fill="#FFFFFF" transform="translate(0,0)"/>
<path d="" fill="#FFFFFF" transform="translate(0,0)"/>
<path d="" fill="#FFFFFF" transform="translate(0,0)"/>
<path d="" fill="#FFFFFF" transform="translate(0,0)"/>
<path d="" fill="#FFFFFF" transform="translate(0,0)"/>
<path d="" fill="#FFFFFF" transform="translate(0,0)"/>
<path d="" fill="#FFFFFF" transform="translate(0,0)"/>
<path d="" fill="#FFFFFF" transform="translate(0,0)"/>
<path d="" fill="#FFFFFF" transform="translate(0,0)"/>
<path d="" fill="#FFFFFF" transform="translate(0,0)"/>
<path d="" fill="#808080" transform="translate(0,0)"/>
<path d="" fill="#FFFFFF" transform="translate(0,0)"/>
<path d="" fill="#FFFFFF" transform="translate(0,0)"/>
<path d="" fill="#00FFFF" transform="translate(0,0)"/>
<path d="" fill="#FFFFFF" transform="translate(0,0)"/>
<path d="" fill="#FFFFFF" transform="translate(0,0)"/>
<path d="" fill="#FFFFFF" transform="translate(0,0)"/>
<path d="" fill="#FFFFFF" transform="translate(0,0)"/>
<path d="" fill="#FFFFFF" transform="translate(0,0)"/>
<path d="" fill="#FFFFFF" transform="translate(0,0)"/>
<path d="" fill="#FFFFFF" transform="translate(0,0)"/>
<path d="" fill="#FFFFFF" transform="translate(0,0)"/>
<path d="" fill="#FFFFFF" transform="translate(0,0)"/>
<path d="" fill="#FFFFFF" transform="translate(0,0)"/>
<path d="" fill="#FFFFFF" transform="translate(0,0)"/>
<path d="" fill="#FFFFFF" transform="translate(0,0)"/>
<path d="" fill="#FFFFFF" transform="translate(0,0)"/>
<path d="" fill="#FFFFFF" transform="translate(0,0)"/>
<path d="" fill="#FFFFFF" transform="translate(0,0)"/>
<path d="" fill="#FFFFFF" transform="translate(0,0)"/>
<path d="" fill="#FFFFFF" transform="translate(0,0)"/>
<path d="" fill="#FFFFFF" transform="translate(0,0)"/>
<path d="" fill="#FFFFFF" transform="translate(0,0)"/>
<path d="" fill="#FFFFFF" transform="translate(0,0)"/>
<path d="" fill="#FFFFFF" transform="translate(0,0)"/>
<path d="" fill="#FFFFFF" transform="translate(0,0)"/>
<path d="" fill="#FFFFFF" transform="translate(0,0)"/>
<path d="" fill="#FFFFFF" transform="translate(0,0)"/>
<path d="" fill="#FFFFFF" transform="translate(0,0)"/>
<path d="" fill="#FFFFFF" transform="translate(0,0)"/>
<path d="" fill="#FFFFFF" transform="translate(0,0)"/>
<path d="" fill="#FFFFFF" transform="translate(0,0)"/>
<path d="" fill="#FFFFFF" transform="translate(0,0)"/>
<path d="" fill="#FFFFFF" transform="translate(0,0)"/>
<path d="" fill="#FFFFFF" transform="translate(0,0)"/>
<path d="" fill="#FFFFFF" transform="translate(0,0)"/>
<path d="" fill="#FFFFFF" transform="translate(0,0)"/>
<path d="" fill="#FFFFFF" transform="translate(0,0)"/>
<path d="" fill="#FFFFFF" transform="translate(0,0)"/>
<path d="" fill="#FFFFFF" transform="translate(0,0)"/>
<path d="" fill="#FFFFFF" transform="translate(0,0)"/>
<path d="" fill="#FFFFFF" transform="translate(0,0)"/>
<path d="" fill="#FFFFFF" transform="translate(0,0)"/>
<path d="" fill="#FFFFFF" transform="translate(0,0)"/>
<path d="" fill="#FFFFFF" transform="translate(0,0)"/>
<path d="" fill="#FFFFFF" transform="translate(0,0)"/>
<path d="" fill="#FFFFFF" transform="translate(0,0)"/>
<path d="" fill="#FFFFFF" transform="translate(0,0)"/>
</svg>
